<svg width="1028" height="64" viewBox="0 0 1028 64" fill="none" xmlns="http://www.w3.org/2000/svg">
<path d="M0 13.0923V0.852522H73.0465V13.0923H46.8409V63.2084H26.2478V13.0923H0Z" fill="white"/>
<path d="M83.2481 63.2084V0.852522H104.137V25.8801H138.191V0.852522H159.038V63.2084H138.191V38.1503H104.137V63.2084H83.2481Z" fill="white"/>
<path d="M193.029 0.852522V63.2084H172.14V0.852522H193.029Z" fill="white"/>
<path d="M252.857 19.5471C252.575 17.3143 251.323 15.5788 249.101 14.3406C246.907 13.0821 243.77 12.4529 239.69 12.4529C236.99 12.4529 234.739 12.7066 232.939 13.2141C231.138 13.7215 229.788 14.4218 228.888 15.3149C227.987 16.1878 227.523 17.1925 227.495 18.3292C227.439 19.2629 227.692 20.085 228.255 20.7954C228.845 21.5059 229.689 22.1351 230.786 22.6832C231.912 23.2109 233.262 23.6778 234.838 24.0837C236.413 24.4897 238.185 24.8449 240.155 25.1494L247.582 26.3673C251.858 27.0371 255.628 27.9302 258.891 29.0466C262.183 30.163 264.94 31.4926 267.162 33.0352C269.413 34.5779 271.115 36.354 272.268 38.3635C273.422 40.373 274.012 42.6261 274.04 45.1227C274.012 49.0606 272.634 52.4402 269.905 55.2617C267.176 58.0831 263.252 60.2449 258.131 61.7469C253.039 63.249 246.892 64 239.69 64C232.46 64 226.159 63.2185 220.785 61.6556C215.412 60.0926 211.234 57.7177 208.252 54.5309C205.27 51.3441 203.737 47.3149 203.652 42.4434H223.655C223.824 44.4529 224.569 46.1275 225.891 47.4672C227.214 48.8069 229.028 49.8218 231.335 50.5119C233.67 51.202 236.371 51.5471 239.437 51.5471C242.251 51.5471 244.642 51.2731 246.611 50.725C248.609 50.177 250.142 49.4158 251.211 48.4415C252.28 47.4672 252.828 46.3508 252.857 45.0923C252.828 43.915 252.322 42.9103 251.337 42.078C250.353 41.2255 248.834 40.4948 246.78 39.8858C244.754 39.2566 242.166 38.6781 239.015 38.1503L229.985 36.628C222.501 35.3898 216.608 33.3904 212.303 30.6299C207.999 27.849 205.861 24.0939 205.889 19.3644C205.861 15.5078 207.296 12.1281 210.193 9.2255C213.091 6.32287 217.1 4.05963 222.22 2.43578C227.34 0.811926 233.178 0 239.733 0C246.428 0 252.238 0.822074 257.161 2.46622C262.112 4.09007 265.952 6.37361 268.681 9.31684C271.41 12.2601 272.803 15.6702 272.859 19.5471H252.857Z" fill="white"/>
<path d="M331.009 0.852522V63.2084H310.121V0.852522H331.009Z" fill="white"/>
<path d="M390.837 19.5471C390.556 17.3143 389.304 15.5788 387.081 14.3406C384.887 13.0821 381.75 12.4529 377.671 12.4529C374.97 12.4529 372.719 12.7066 370.919 13.2141C369.118 13.7215 367.768 14.4218 366.868 15.3149C365.968 16.1878 365.503 17.1925 365.475 18.3292C365.419 19.2629 365.672 20.085 366.235 20.7954C366.826 21.5059 367.67 22.1351 368.767 22.6832C369.892 23.2109 371.242 23.6778 372.818 24.0837C374.393 24.4897 376.166 24.8449 378.135 25.1494L385.562 26.3673C389.838 27.0371 393.608 27.9302 396.871 29.0466C400.163 30.163 402.92 31.4926 405.142 33.0352C407.393 34.5779 409.095 36.354 410.248 38.3635C411.402 40.373 411.993 42.6261 412.021 45.1227C411.993 49.0606 410.614 52.4402 407.885 55.2617C405.156 58.0831 401.232 60.2449 396.112 61.7469C391.02 63.249 384.873 64 377.671 64C370.441 64 364.139 63.2185 358.766 61.6556C353.392 60.0926 349.215 57.7177 346.232 54.5309C343.25 51.3441 341.717 47.3149 341.633 42.4434H361.635C361.804 44.4529 362.549 46.1275 363.872 47.4672C365.194 48.8069 367.008 49.8218 369.315 50.5119C371.65 51.202 374.351 51.5471 377.418 51.5471C380.231 51.5471 382.622 51.2731 384.591 50.725C386.589 50.177 388.122 49.4158 389.191 48.4415C390.26 47.4672 390.809 46.3508 390.837 45.0923C390.809 43.915 390.302 42.9103 389.318 42.078C388.333 41.2255 386.814 40.4948 384.76 39.8858C382.735 39.2566 380.146 38.6781 376.996 38.1503L367.965 36.628C360.482 35.3898 354.588 33.3904 350.284 30.6299C345.979 27.849 343.841 24.0939 343.869 19.3644C343.841 15.5078 345.276 12.1281 348.174 9.2255C351.071 6.32287 355.08 4.05963 360.2 2.43578C365.32 0.811926 371.158 0 377.713 0C384.409 0 390.218 0.822074 395.141 2.46622C400.092 4.09007 403.933 6.37361 406.661 9.31684C409.39 12.2601 410.783 15.6702 410.839 19.5471H390.837Z" fill="white"/>
<path d="M445.274 13.0923V0.852522H518.32V13.0923H492.115V63.2084H471.521V13.0923H445.274Z" fill="white"/>
<path d="M528.522 63.2084V0.852522H549.41V25.8801H583.465V0.852522H604.311V63.2084H583.465V38.1503H549.41V63.2084H528.522Z" fill="white"/>
<path d="M617.414 63.2084V0.852522H677.674V13.0923H638.303V25.8801H674.594V38.1503H638.303V50.9686H677.674V63.2084H617.414Z" fill="white"/>
<path d="M713.459 13.0923V0.852522H786.505V13.0923H760.3V63.2084H739.707V13.0923H713.459Z" fill="white"/>
<path d="M796.707 63.2084V0.852522H856.967V13.0923H817.596V25.8801H853.887V38.1503H817.596V50.9686H856.967V63.2084H796.707Z" fill="white"/>
<path d="M891.191 0.852522L906.973 20.5519H907.648L923.6 0.852522H946.978L920.899 32.0305L947.822 63.2084H923.853L907.648 43.2959H906.973L890.769 63.2084H866.969L893.765 32.0305L867.644 0.852522H891.191Z" fill="white"/>
<path d="M954.953 13.0923V0.852522H1028V13.0923H1001.79V63.2084H981.201V13.0923H954.953Z" fill="white"/>
</svg>
