<svg width="1260" height="139" viewBox="0 0 1260 139" fill="none" xmlns="http://www.w3.org/2000/svg">
<path d="M41.8805 138.5H42.2348L42.3522 138.166L52.3343 109.735H104.645L114.648 138.166L114.765 138.5H115.12H155H155.724L155.468 137.823L103.668 0.823168L103.546 0.5H103.2H53.7996H53.4541L53.3319 0.823168L1.53231 137.823L1.2764 138.5H2H41.8805ZM95.4435 83.583H61.5166L78.2172 36.0176H78.7081L95.4435 83.583Z" stroke="white"/>
<path d="M1231.65 133.647C1240.58 130.407 1247.45 125.731 1252.24 119.602C1257.04 113.467 1259.45 106.122 1259.5 97.5938L1259.5 97.5863C1259.45 92.1798 1258.42 87.2853 1256.39 82.9114C1254.36 78.54 1251.37 74.6817 1247.43 71.3367C1243.54 67.994 1238.72 65.1226 1232.99 62.7169C1227.31 60.3113 1220.76 58.3908 1213.33 56.9519C1213.33 56.9518 1213.33 56.9517 1213.33 56.9516L1200.49 54.3454L1200.48 54.3443C1197.09 53.6955 1194.05 52.9397 1191.35 52.0779C1188.65 51.2181 1186.35 50.2334 1184.45 49.1276C1182.6 47.9856 1181.2 46.6873 1180.23 45.2399C1179.32 43.8173 1178.9 42.1645 1178.99 40.2603L1178.99 40.2531L1178.99 40.246C1179.04 37.9262 1179.8 35.8847 1181.29 34.1037L1181.29 34.0993C1182.77 32.2796 1185.02 30.8243 1188.07 29.7585C1191.12 28.6966 1194.95 28.157 1199.59 28.157C1206.59 28.157 1211.9 29.4954 1215.57 32.1057L1215.58 32.1095C1219.3 34.6741 1221.39 38.255 1221.86 42.8936L1221.91 43.343L1231.48 133.177M1231.65 133.647L1231.48 133.177M1231.65 133.647C1231.65 133.647 1231.65 133.647 1231.66 133.647L1231.48 133.177M1231.65 133.647C1222.78 136.888 1212.08 138.5 1199.59 138.5C1187.04 138.5 1176.08 136.822 1166.72 133.452C1157.35 130.079 1150.04 124.942 1144.81 118.032C1139.58 111.108 1136.9 102.373 1136.76 91.8624L1136.75 91.3554H1137.26H1171.85H1172.32L1172.35 91.8215C1172.64 96.0399 1173.9 99.5226 1176.11 102.298C1178.33 105.083 1181.39 107.207 1185.31 108.658M1231.48 133.177C1222.68 136.392 1212.04 138 1199.59 138C1187.08 138 1176.18 136.327 1166.89 132.981C1157.6 129.636 1150.37 124.552 1145.21 117.73C1140.14 111.018 1137.49 102.56 1137.27 92.3554H1137.26V91.8554L1137.76 91.8484C1137.76 91.8507 1137.76 91.853 1137.76 91.8554H1171.85C1172.14 96.157 1173.43 99.7417 1175.72 102.609C1178.01 105.477 1181.15 107.65 1185.14 109.127M1185.31 108.658C1185.31 108.658 1185.31 108.658 1185.31 108.657L1185.14 109.127M1185.31 108.658C1185.31 108.658 1185.31 108.658 1185.31 108.658L1185.14 109.127M1185.31 108.658C1189.28 110.111 1193.89 110.843 1199.15 110.843C1203.98 110.843 1208.06 110.261 1211.4 109.111L1211.4 109.11C1214.79 107.956 1217.36 106.367 1219.14 104.363C1220.91 102.366 1221.81 100.092 1221.86 97.5248M1185.14 109.127C1189.17 110.604 1193.85 111.343 1199.15 111.343C1204.02 111.343 1208.15 110.756 1211.56 109.583C1215.01 108.41 1217.66 106.781 1219.51 104.695C1221.36 102.609 1222.31 100.22 1222.36 97.5257M1221.86 97.5248C1221.86 97.5283 1221.86 97.5318 1221.86 97.5353L1222.36 97.5257M1221.86 97.5248C1221.86 97.5221 1221.86 97.5194 1221.86 97.5167L1222.36 97.5257M1221.86 97.5248C1221.81 95.1315 1220.98 93.1049 1219.37 91.4188L1219.37 91.4144C1217.74 89.6687 1215.19 88.1392 1211.68 86.85L1211.67 86.8473C1208.2 85.5135 1203.75 84.2817 1198.32 83.1552L1198.32 83.155L1182.7 79.8966M1222.36 97.5257C1222.31 95.0055 1221.44 92.8547 1219.73 91.0733M1219.73 91.0733L1182.7 79.8966M1219.73 91.0733C1218.03 89.2483 1215.4 87.6841 1211.85 86.3806C1208.35 85.0336 1203.87 83.7953 1198.42 82.6656L1219.73 91.0733ZM1182.7 79.8966L1182.7 79.8962C1169.71 77.2357 1159.43 72.9318 1151.91 66.9587L1151.91 66.9576C1144.33 60.9034 1140.58 52.7169 1140.62 42.4524C1140.58 34.0868 1143.09 26.7403 1148.18 20.4344C1153.26 14.1415 1160.27 9.25033 1169.19 5.74866C1178.11 2.24583 1188.27 0.5 1199.66 0.5C1211.29 0.5 1221.41 2.26683 1229.99 5.81635C1229.99 5.81662 1230 5.8169 1230 5.81717L1229.8 6.27925L1182.7 79.8966ZM536 2.32493H535.5V2.82493V136.305V136.805H536H571.18H571.68V136.305V54.3578H572.095L607.873 135.66L608.005 135.958H608.331H630.811H631.137L631.269 135.66L667.047 54.814H667.462V136.305V136.805H667.962H703.142H703.642V136.305V2.82493V2.32493H703.142H658.401H658.08L657.946 2.61626L620.126 84.9681H619.016L581.196 2.61626L581.062 2.32493H580.742H536ZM725.177 136.305V136.805H725.677H829.904H830.404V136.305V110.105V109.605H829.904H762.306V83.1656H824.576H825.076V82.6656V56.3996V55.8996H824.576H762.306V29.5257H829.904H830.404V29.0257V2.82493V2.32493H829.904H725.677H725.177V2.82493V136.305ZM980.248 2.82493V2.32493H979.748H943.692H943.192V2.82493V79.2326H942.698L884.02 2.52115L883.87 2.32493H883.623H852.53H852.03V2.82493V136.305V136.805H852.53H888.659H889.159V136.305V59.7674H889.363L948.698 136.611L948.848 136.805H949.093H979.748H980.248V136.305V2.82493ZM997.076 29.0257V29.5257H997.576H1042.47V136.305V136.805H1042.97H1078.59H1079.09V136.305V29.5257H1123.92H1124.42V29.0257V2.82493V2.32493H1123.92H997.576H997.076V2.82493V29.0257Z" stroke="white"/>
<path d="M198 0.5H197.5V1V138V138.5H198H233.15H233.65V138V53.8784H234.06L269.81 137.327L269.94 137.63H270.269H292.731H293.06L293.19 137.328L328.939 54.3467H329.35V138V138.5H329.85H365H365.5V138V1V0.5H365H320.297H319.972L319.84 0.795931L282.051 85.3223H280.949L243.16 0.795931L243.028 0.5H242.703H198Z" stroke="white"/>
</svg>
