<svg width="183" height="36" viewBox="0 0 183 36" fill="none" xmlns="http://www.w3.org/2000/svg">
<path d="M0 0.700251C0 0.313513 0.313513 0 0.700251 0H34.344V12.4135L5.83782 7.60522C2.4675 7.03673 0 4.11818 0 0.700251Z" fill="#F54E51"/>
<path d="M3.72034 14.888C3.72034 14.4357 4.08704 14.069 4.53938 14.069H23.1681V26.0687L9.96748 22.8446C6.30035 21.9489 3.72034 18.6629 3.72034 14.888Z" fill="#F54E51"/>
<path d="M30.2115 10.7589L22.0285 26.8162C20.3212 30.1663 16.8789 32.2756 13.1188 32.2756L10.5909 32.2756C9.88205 32.2756 9.39824 31.5585 9.66369 30.9012L17.5454 11.3844C17.6981 11.0064 18.065 10.7589 18.4727 10.7589L30.2115 10.7589Z" fill="#F54E51"/>
<circle cx="33.7236" cy="17.9996" r="17.9996" fill="#F54E51"/>
<circle cx="33.7283" cy="17.9988" r="8.06877" fill="black"/>
<path d="M71.9614 29.9995C70.2115 29.9995 68.5929 29.6927 67.1055 29.079C65.6399 28.4653 64.3494 27.6105 63.2338 26.5146C62.1183 25.4187 61.2543 24.1475 60.6418 22.7009C60.0294 21.2324 59.7231 19.6543 59.7231 17.9666C59.7231 16.257 60.0294 14.679 60.6418 13.2324C61.2543 11.7858 62.1074 10.5255 63.201 9.45157C64.2947 8.35568 65.5743 7.51184 67.0398 6.92006C68.5272 6.30636 70.1459 5.99951 71.8958 5.99951C73.6238 5.99951 75.2206 6.30636 76.6861 6.92006C78.1735 7.51184 79.464 8.35568 80.5577 9.45157C81.6733 10.5255 82.5373 11.7968 83.1497 13.2653C83.7622 14.7118 84.0684 16.2899 84.0684 17.9995C84.0684 19.6872 83.7622 21.2653 83.1497 22.7338C82.5373 24.1803 81.6842 25.4516 80.5905 26.5475C79.4968 27.6214 78.2063 28.4653 76.7189 29.079C75.2534 29.6927 73.6675 29.9995 71.9614 29.9995ZM71.8958 25.2981C73.2738 25.2981 74.4769 24.9913 75.5049 24.3776C76.5548 23.7639 77.3642 22.9091 77.9329 21.8132C78.5016 20.6954 78.7859 19.4132 78.7859 17.9666C78.7859 16.8707 78.6219 15.8844 78.2938 15.0077C77.9657 14.1091 77.4954 13.342 76.8829 12.7064C76.2705 12.0488 75.5377 11.5557 74.6847 11.2269C73.8535 10.8762 72.9238 10.7009 71.8958 10.7009C70.5177 10.7009 69.3038 11.0077 68.2538 11.6214C67.2258 12.2132 66.4274 13.057 65.8587 14.1529C65.29 15.2269 65.0056 16.4981 65.0056 17.9666C65.0056 19.0625 65.1697 20.0598 65.4978 20.9584C65.8259 21.857 66.2852 22.6351 66.8758 23.2927C67.4883 23.9283 68.221 24.4214 69.0741 24.7721C69.9272 25.1228 70.8677 25.2981 71.8958 25.2981Z" fill="white"/>
<path d="M87.3384 29.605V6.39403H92.4896V29.605H87.3384ZM91.2757 20.4981V16.0598H102.858V20.4981H91.2757ZM91.2757 10.8324V6.39403H103.383V10.8324H91.2757Z" fill="white"/>
<path d="M113.594 29.9666C111.866 29.9666 110.324 29.6159 108.968 28.9146C107.633 28.1913 106.583 27.194 105.818 25.9228C105.052 24.6516 104.669 23.216 104.669 21.6159C104.669 20.0159 105.041 18.5913 105.785 17.342C106.551 16.0707 107.579 15.0735 108.869 14.3502C110.16 13.6269 111.614 13.2653 113.233 13.2653C114.808 13.2653 116.197 13.605 117.4 14.2844C118.603 14.9639 119.543 15.9064 120.222 17.1118C120.921 18.3173 121.271 19.6981 121.271 21.2543C121.271 21.5392 121.25 21.8461 121.206 22.1749C121.184 22.4817 121.129 22.8433 121.042 23.2598L107.294 23.2927V19.8406L118.909 19.8077L116.744 21.2543C116.722 20.3338 116.58 19.5776 116.317 18.9858C116.055 18.3721 115.661 17.9118 115.136 17.605C114.633 17.2762 114.009 17.1118 113.266 17.1118C112.478 17.1118 111.789 17.2981 111.199 17.6707C110.63 18.0214 110.182 18.5255 109.853 19.1831C109.547 19.8406 109.394 20.6406 109.394 21.5831C109.394 22.5255 109.558 23.3365 109.886 24.016C110.236 24.6735 110.717 25.1886 111.33 25.5612C111.964 25.9118 112.708 26.0872 113.561 26.0872C114.348 26.0872 115.059 25.9557 115.694 25.6927C116.328 25.4077 116.886 24.9913 117.367 24.4433L120.123 27.205C119.336 28.1255 118.384 28.8159 117.269 29.2762C116.153 29.7365 114.928 29.9666 113.594 29.9666Z" fill="white"/>
<path d="M123.695 29.605V13.6269H128.715V29.605H123.695ZM128.715 20.8269L126.615 19.1831C127.03 17.3201 127.73 15.8735 128.715 14.8433C129.699 13.8132 131.066 13.2981 132.816 13.2981C133.581 13.2981 134.249 13.4187 134.817 13.6598C135.408 13.879 135.922 14.2296 136.359 14.7118L133.374 18.4927C133.155 18.2516 132.881 18.0653 132.553 17.9338C132.225 17.8023 131.853 17.7365 131.438 17.7365C130.607 17.7365 129.939 17.9995 129.436 18.5255C128.955 19.0297 128.715 19.7968 128.715 20.8269Z" fill="white"/>
<path d="M137.6 29.605V13.6269H142.62V29.605H137.6ZM142.62 20.8269L140.521 19.1831C140.936 17.3201 141.636 15.8735 142.62 14.8433C143.605 13.8132 144.972 13.2981 146.722 13.2981C147.487 13.2981 148.154 13.4187 148.723 13.6598C149.314 13.879 149.828 14.2296 150.265 14.7118L147.28 18.4927C147.061 18.2516 146.787 18.0653 146.459 17.9338C146.131 17.8023 145.759 17.7365 145.344 17.7365C144.513 17.7365 143.845 17.9995 143.342 18.5255C142.861 19.0297 142.62 19.7968 142.62 20.8269Z" fill="white"/>
<path d="M158.832 29.9666C157.191 29.9666 155.704 29.605 154.369 28.8817C153.057 28.1365 152.018 27.1283 151.252 25.857C150.487 24.5858 150.104 23.1612 150.104 21.5831C150.104 20.005 150.487 18.5913 151.252 17.342C152.018 16.0927 153.057 15.1064 154.369 14.3831C155.682 13.6379 157.169 13.2653 158.832 13.2653C160.494 13.2653 161.981 13.6269 163.294 14.3502C164.606 15.0735 165.645 16.0707 166.411 17.342C167.176 18.5913 167.559 20.005 167.559 21.5831C167.559 23.1612 167.176 24.5858 166.411 25.857C165.645 27.1283 164.606 28.1365 163.294 28.8817C161.981 29.605 160.494 29.9666 158.832 29.9666ZM158.832 25.3968C159.553 25.3968 160.188 25.2433 160.735 24.9365C161.281 24.6077 161.697 24.1584 161.981 23.5886C162.288 22.9968 162.441 22.3283 162.441 21.5831C162.441 20.8379 162.288 20.1913 161.981 19.6433C161.675 19.0735 161.249 18.6351 160.702 18.3283C160.177 17.9995 159.553 17.8351 158.832 17.8351C158.132 17.8351 157.508 17.9995 156.961 18.3283C156.415 18.6351 155.988 19.0735 155.682 19.6433C155.376 20.2132 155.222 20.8707 155.222 21.6159C155.222 22.3392 155.376 22.9968 155.682 23.5886C155.988 24.1584 156.415 24.6077 156.961 24.9365C157.508 25.2433 158.132 25.3968 158.832 25.3968Z" fill="white"/>
<path d="M170.058 29.605V13.6269H175.078V29.605H170.058ZM175.078 20.8269L172.978 19.1831C173.394 17.3201 174.094 15.8735 175.078 14.8433C176.063 13.8132 177.43 13.2981 179.18 13.2981C179.945 13.2981 180.612 13.4187 181.181 13.6598C181.772 13.879 182.286 14.2296 182.723 14.7118L179.737 18.4927C179.519 18.2516 179.245 18.0653 178.917 17.9338C178.589 17.8023 178.217 17.7365 177.802 17.7365C176.97 17.7365 176.303 17.9995 175.8 18.5255C175.319 19.0297 175.078 19.7968 175.078 20.8269Z" fill="white"/>
</svg>
