<svg width="120" height="44" viewBox="0 0 120 44" fill="none" xmlns="http://www.w3.org/2000/svg">
<path d="M0 22V44H60H120V22V0H60H0V22ZM117.995 22V42.019L60.0317 41.9981L2.05805 41.9668L2.02639 21.9687L2.00528 1.98104H60H117.995V22Z" fill="#979797"/>
<path d="M10.343 10.6768V11.2398L10.7968 11.3128C11.0396 11.344 11.3984 11.4066 11.5884 11.4379L11.9261 11.49L11.905 21.9895L11.8734 32.4786L11.1135 32.5621L10.343 32.6559V33.2711V33.8862H14.3536H18.3641V33.2711V32.6559L17.6042 32.5621L16.8338 32.4786L16.8021 27.7033L16.781 22.9384H22.0581H27.3351V27.672C27.3351 31.6237 27.314 32.4161 27.1873 32.4578C27.1029 32.4891 26.7019 32.5516 26.2902 32.5933L25.5409 32.6663V33.2711V33.8862H29.657H33.7731V33.2711V32.6559L33.066 32.5829C32.686 32.5412 32.3061 32.4891 32.2216 32.4578C32.1056 32.4161 32.0844 30.5393 32.0844 21.9478V11.49L32.5066 11.4275C32.7388 11.3962 33.1187 11.3336 33.3509 11.3023L33.7731 11.2398V10.6768V10.1137H29.657H25.5409V10.6768V11.2398L26.0475 11.3023C26.3219 11.344 26.723 11.3962 26.9446 11.4275L27.3351 11.49V15.963V20.436H22.0581H16.781V15.963V11.49L17.2348 11.417C18.4802 11.2294 18.3641 11.3023 18.3641 10.6768V10.1137H14.3536H10.343V10.6768Z" fill="#979797"/>
<path d="M39.9895 10.4057C37.7942 11.5317 38.6702 14.8057 41.161 14.8057C41.9103 14.8057 42.4908 14.5346 42.9763 13.982C43.7678 13.0644 43.7678 11.855 42.9657 10.9374C42.2269 10.072 41.0343 9.86348 39.9895 10.4057Z" fill="#979797"/>
<path d="M48.2322 10.6246V11.1355L48.9499 11.2189L49.657 11.3128L49.6886 21.9687L49.7098 32.6142L49.4248 32.6768C49.2559 32.708 48.9287 32.7602 48.686 32.7914L48.2322 32.8644V33.3753V33.8862H51.9789H55.7256V33.3753V32.8644L55.2823 32.7914C55.029 32.7602 54.7018 32.708 54.5435 32.6768L54.248 32.6142V21.364V10.1137H51.2401H48.2322V10.6246Z" fill="#979797"/>
<path d="M62.723 12.7621L60.5805 13.3981V15.1915V16.9952H58.9446H57.3087V17.7772V18.5592H58.8813H60.4644L60.4961 24.8881C60.5383 31.9365 60.5383 31.8635 61.2665 32.8644C62.3747 34.3659 65.6887 34.5223 69.6359 33.2502L70.2902 33.0313V32.4578V31.8843L69.9736 31.9573C69.7942 31.999 69.0449 32.0303 68.3061 32.0303C66.3852 32.0407 65.7731 31.8114 65.3087 30.8834L65.066 30.3933L65.0343 24.4711L65.0026 18.5592H67.0185H69.0238V17.7772V16.9952H67.0185H65.0132V14.545C65.0132 13.2 64.9815 12.0948 64.9393 12.1052C64.8866 12.1156 63.8945 12.4076 62.723 12.7621Z" fill="#979797"/>
<path d="M78.9446 16.5365C77.3615 16.745 75.3878 17.527 74.2797 18.3924C72.9815 19.4142 71.9367 21.0407 71.4512 22.782C71.124 23.9498 71.0396 26.546 71.2823 27.9327C71.6306 29.872 72.2005 31.0711 73.3509 32.218C74.7229 33.5839 76.6121 34.2512 79.4723 34.3659C82.4907 34.5014 84.9604 33.709 86.7546 32.0407C88.4538 30.4663 89.2454 28.6417 89.3615 26.0663C89.4353 24.4294 89.277 23.1886 88.8232 21.8749C88.3588 20.509 87.9156 19.8104 86.9129 18.8199C86.2269 18.1317 85.8786 17.8919 85.0659 17.4853C83.6834 16.818 82.6174 16.5782 80.7915 16.5261C79.9789 16.5052 79.1451 16.5156 78.9446 16.5365ZM80.8443 17.8294C82.0791 18.0588 82.9235 18.7573 83.5356 20.0711C84.2005 21.4891 84.4327 22.8654 84.4327 25.4825C84.4327 30.7062 83.1451 33.0626 80.2638 33.073C79.219 33.0834 78.4591 32.7915 77.8153 32.1242C76.4749 30.7687 75.8206 27.6199 76.095 23.9289C76.3694 20.2275 77.4987 18.2256 79.5039 17.8294C80.1266 17.7147 80.2216 17.7147 80.8443 17.8294Z" fill="#979797"/>
<path d="M102.501 16.6929C101.182 16.8597 99.5567 17.5791 98.1742 18.6114C97.752 18.9241 97.3509 19.1848 97.2982 19.1848C97.2454 19.1848 97.2032 18.6948 97.2032 18.09V16.9952H94.1953H91.1873V17.5583V18.1213L91.6939 18.1839C91.9684 18.2256 92.3166 18.2777 92.4855 18.309L92.7705 18.3715V25.4929V32.6142L92.1689 32.6768C91.1873 32.7914 91.1873 32.7914 91.1873 33.3753V33.8862H94.9868H98.7863V33.3649C98.7863 33.073 98.7546 32.8436 98.7124 32.8332C98.6596 32.8227 98.3219 32.7706 97.942 32.6976L97.2559 32.5829V26.5355V20.4881L97.7837 20.1441C98.0792 19.9564 98.6913 19.654 99.1557 19.4768C99.8839 19.1848 100.127 19.1431 100.95 19.1327C101.995 19.1327 102.48 19.3099 103.029 19.8834C103.863 20.7488 103.979 21.7185 103.937 27.8388L103.905 32.5829L103.219 32.6976C102.839 32.7706 102.501 32.8227 102.459 32.8332C102.406 32.8436 102.375 33.073 102.375 33.3649V33.8862H106.174H109.974V33.3753C109.974 32.7914 109.974 32.7914 109.003 32.6872L108.401 32.6142L108.369 26.5459C108.338 20.5403 108.327 20.4777 108.084 19.7583C107.757 18.7677 107.441 18.2568 106.807 17.6938C106.185 17.1412 105.393 16.818 104.338 16.6824C103.493 16.5677 103.42 16.5677 102.501 16.6929Z" fill="#979797"/>
<path d="M37.3615 17.5061V18.017L37.868 18.0796C38.1425 18.1213 38.4907 18.1734 38.6596 18.2047L38.9446 18.2673L38.9235 25.4199L38.8918 32.5829L38.2058 32.6976C37.8258 32.7706 37.4881 32.8227 37.4459 32.8332C37.3931 32.8436 37.3615 33.073 37.3615 33.3649V33.8862H41.1715H44.9709L44.9393 33.4066C44.8971 32.8332 44.8232 32.7706 43.9894 32.6872L43.3773 32.6246V24.8047V16.9952H40.3694H37.3615V17.5061Z" fill="#979797"/>
</svg>
