<svg width="37" height="26" viewBox="0 0 37 26" fill="none" xmlns="http://www.w3.org/2000/svg">
<path d="M0 0.499962C0 0.22384 0.223841 0 0.499962 0H24.5208V8.86293L4.16806 5.42994C1.76173 5.02406 0 2.94028 0 0.499962Z" fill="#F54E51"/>
<path d="M2.65887 10.6295C2.65887 10.3065 2.92069 10.0447 3.24365 10.0447H16.5441V18.6122L7.11918 16.3102C4.50095 15.6708 2.65887 13.3247 2.65887 10.6295Z" fill="#F54E51"/>
<path d="M21.5665 7.68115L16.3838 17.8508C14.76 21.0373 11.4858 23.0436 7.90939 23.0436C7.23514 23.0436 6.77496 22.3614 7.02744 21.7362L12.4509 8.30669C12.6036 7.92865 12.9705 7.68115 13.3782 7.68115L21.5665 7.68115Z" fill="#F54E51"/>
<circle cx="24.0776" cy="12.8512" r="12.8512" fill="#F54E51"/>
<circle cx="24.0776" cy="12.8512" r="5.7609" fill="black"/>
</svg>
