<svg width="194" height="42" viewBox="0 0 194 42" fill="none" xmlns="http://www.w3.org/2000/svg">
<path d="M34.4615 0.562816C34.5266 0.194944 34.6559 -4.55746e-05 34.8297 -4.55746e-05C35.0031 -4.55746e-05 35.1324 0.10859 35.4131 0.670732L41.3184 12.8763L47.203 0.51874C47.3759 0.173377 47.4837 -4.55746e-05 47.6782 -4.55746e-05C47.8735 -4.55746e-05 48.0033 0.216014 48.0684 0.670732L50.0367 14.0458C50.2307 15.4084 50.4467 16.0362 51.0965 16.2312C51.7234 16.4256 52.1563 16.4477 52.4374 16.4477C52.6323 16.4477 52.7837 16.4688 52.7837 16.599C52.7837 16.7721 52.5241 16.8372 52.2214 16.8372C51.6812 16.8372 48.6958 16.7721 47.8299 16.7073C47.3324 16.6643 47.203 16.599 47.203 16.4688C47.203 16.3614 47.2893 16.2957 47.4406 16.2312C47.5708 16.188 47.6359 15.9067 47.5493 15.3001L46.251 5.77853H46.1643L41.4486 15.6045C40.9506 16.6202 40.8433 16.8161 40.6479 16.8161C40.4544 16.8161 40.2375 16.3824 39.8908 15.7333C39.3717 14.7377 37.6634 11.427 37.4038 10.8208C37.2089 10.3666 35.9111 7.63865 35.154 6.01634H35.0677L33.9433 14.6302C33.8993 15.0193 33.8781 15.3001 33.8781 15.6466C33.8781 16.0586 34.1588 16.2522 34.5266 16.3394C34.9169 16.4256 35.2195 16.4477 35.4355 16.4477C35.6089 16.4477 35.7598 16.4907 35.7598 16.599C35.7598 16.7936 35.5644 16.8372 35.2406 16.8372C34.3322 16.8372 33.359 16.7721 32.9701 16.7721C32.5583 16.7721 31.5196 16.8372 30.8276 16.8372C30.6111 16.8372 30.4387 16.7936 30.4387 16.599C30.4387 16.4907 30.568 16.4477 30.7849 16.4477C30.9583 16.4477 31.1092 16.4477 31.4334 16.3824C32.0383 16.2522 32.2121 15.4084 32.3203 14.6726L34.4615 0.562816" fill="#979797"/>
<path d="M65.2213 11.1888C65.3075 11.1888 65.3295 11.1453 65.3075 11.0801L63.5117 6.40627C63.4906 6.34099 63.469 6.23271 63.4255 6.23271C63.3608 6.23271 63.3397 6.34099 63.3172 6.40627L61.4787 11.059C61.4347 11.1453 61.4787 11.1888 61.5438 11.1888H65.2213ZM61.154 12.2055C61.0458 12.2055 61.0247 12.2271 60.9807 12.3354L59.9649 14.8033C59.77 15.2575 59.6838 15.7117 59.6838 15.9279C59.6838 16.2522 59.8558 16.4477 60.4405 16.4477H60.722C60.9596 16.4477 61.0027 16.5339 61.0027 16.6422C61.0027 16.7936 60.8945 16.8372 60.7 16.8372C60.0727 16.8372 59.1853 16.7721 58.58 16.7721C58.3855 16.7721 57.3688 16.8372 56.3741 16.8372C56.1357 16.8372 56.0274 16.7936 56.0274 16.6422C56.0274 16.5339 56.0925 16.4477 56.2443 16.4477C56.4163 16.4477 56.6332 16.4256 56.8066 16.4256C57.6715 16.2957 57.9966 15.7333 58.3855 14.8033L63.3608 3.22391C63.5772 2.70463 63.7286 2.48894 63.923 2.48894C64.2037 2.48894 64.2908 2.66231 64.4853 3.073C64.9393 4.09018 68.1201 11.6214 69.3312 14.4139C70.0668 16.0797 70.607 16.317 70.9533 16.3824C71.2339 16.4256 71.4508 16.4477 71.6668 16.4477C71.8402 16.4477 71.9264 16.5128 71.9264 16.6422C71.9264 16.7936 71.8186 16.8372 71.1046 16.8372C70.4337 16.8372 69.0492 16.8372 67.4491 16.7936C67.1029 16.7721 66.8865 16.7721 66.8865 16.6422C66.8865 16.5339 66.93 16.4688 67.1249 16.4477C67.2542 16.4256 67.3845 16.2522 67.2983 16.0362L65.8266 12.3354C65.7835 12.2271 65.718 12.2055 65.6317 12.2055H61.154" fill="#979797"/>
<path d="M80.7478 9.67394C80.7478 9.86839 80.79 9.93349 80.9203 9.99859C81.3312 10.1281 81.8934 10.1717 82.3699 10.1717C83.127 10.1717 83.3861 10.1066 83.7104 9.86839C84.2946 9.45685 84.944 8.65672 84.944 7.14161C84.944 4.5444 83.1697 3.87398 82.0448 3.87398C81.5696 3.87398 81.1156 3.89523 80.9203 3.93926C80.79 3.98226 80.7478 4.04669 80.7478 4.19796V9.67394ZM78.3237 8.24464C78.3237 5.45366 78.3237 4.93402 78.3026 4.34941C78.2595 3.72217 78.0862 3.52718 77.4808 3.35434C77.329 3.31117 77.0057 3.28902 76.7241 3.28902C76.5292 3.28902 76.3999 3.22392 76.3999 3.09457C76.3999 2.96473 76.5517 2.92119 76.8324 2.92119C77.8275 2.92119 79.0387 2.96472 79.4276 2.96472C80.0769 2.96472 81.8077 2.92119 82.3914 2.92119C83.6026 2.92119 84.9871 3.03068 86.0038 3.7011C86.544 4.06861 87.3451 4.99948 87.3451 6.23271C87.3451 7.59637 86.566 8.808 84.7064 10.3015C86.3927 12.3789 87.7341 14.0458 88.8805 15.1924C89.9404 16.2522 90.6113 16.3394 90.9139 16.4037C91.1079 16.4477 91.2175 16.4477 91.3688 16.4477C91.5206 16.4477 91.6064 16.555 91.6064 16.6422C91.6064 16.7936 91.4762 16.8372 91.2386 16.8372H89.4217C88.3614 16.8372 87.8423 16.7298 87.3451 16.4688C86.5229 16.0586 85.8093 15.1924 84.7486 13.7642C83.9915 12.7686 83.1917 11.5342 82.9532 11.2534C82.8463 11.1453 82.7368 11.1241 82.607 11.1241L80.8992 11.0801C80.812 11.0801 80.7478 11.1241 80.7478 11.231V11.4921C80.7478 13.2012 80.7689 14.6302 80.8547 15.4084C80.9203 15.949 81.0065 16.2957 81.5907 16.3824C81.8723 16.4256 82.2828 16.4477 82.5212 16.4477C82.6726 16.4477 82.7597 16.555 82.7597 16.6422C82.7597 16.7721 82.607 16.8372 82.3699 16.8372C81.2674 16.8372 79.6871 16.7721 79.4065 16.7721C79.0387 16.7721 77.8275 16.8372 77.0695 16.8372C76.8324 16.8372 76.703 16.7721 76.703 16.6422C76.703 16.555 76.7673 16.4477 77.0057 16.4477C77.2864 16.4477 77.5024 16.4256 77.6762 16.3824C78.0651 16.2957 78.1728 15.949 78.238 15.4084C78.3237 14.6302 78.3237 13.1792 78.3237 11.4921V8.24464" fill="#979797"/>
<path d="M97.4907 8.24464C97.4907 5.45366 97.4907 4.93402 97.4696 4.34941C97.4265 3.72217 97.232 3.50611 96.8207 3.37537C96.6042 3.31117 96.3658 3.28902 96.1282 3.28902C95.9338 3.28902 95.8251 3.24638 95.8251 3.073C95.8251 2.96473 95.9769 2.92119 96.2791 2.92119C96.994 2.92119 98.2919 2.96472 98.8321 2.96472C99.3086 2.96472 100.541 2.92119 101.277 2.92119C101.514 2.92119 101.666 2.96473 101.666 3.073C101.666 3.24638 101.558 3.28902 101.363 3.28902C101.168 3.28902 101.017 3.31117 100.8 3.35434C100.283 3.44101 100.131 3.7011 100.087 4.34941C100.044 4.93402 100.044 5.45366 100.044 8.24464V11.4921C100.044 13.2663 100.044 14.7377 100.131 15.5172C100.195 16.0146 100.325 16.2957 100.887 16.3824C101.147 16.4256 101.58 16.4477 101.861 16.4477C102.078 16.4477 102.164 16.555 102.164 16.6422C102.164 16.7721 102.012 16.8372 101.796 16.8372C100.541 16.8372 99.2439 16.7721 98.7248 16.7721C98.2919 16.7721 96.994 16.8372 96.2365 16.8372C95.9985 16.8372 95.8696 16.7721 95.8696 16.6422C95.8696 16.555 95.9338 16.4477 96.1722 16.4477C96.4525 16.4477 96.6694 16.4256 96.8427 16.3824C97.2321 16.2957 97.3394 16.0362 97.4041 15.4948C97.4907 14.7377 97.4907 13.2663 97.4907 11.4921V8.24464" fill="#979797"/>
<path d="M122.022 15.6045C122.022 16.1008 122.022 16.1224 121.784 16.2523C120.507 16.8809 118.625 17.0745 117.133 17.0745C112.46 17.0745 108.329 14.9543 108.329 9.86843C108.329 6.92617 109.908 4.86877 111.66 3.85295C113.478 2.79134 115.186 2.66235 116.787 2.66235C118.106 2.66235 119.772 2.87895 120.161 2.96476C120.55 3.03072 121.221 3.13778 121.675 3.15975C121.891 3.18186 121.935 3.24642 121.935 3.37541C121.935 3.59232 121.805 4.09021 121.805 6.40631C121.805 6.68711 121.697 6.81646 121.546 6.81646C121.416 6.81646 121.372 6.73011 121.351 6.57919C121.307 6.16765 121.2 5.58358 120.702 5.06462C120.14 4.47965 118.713 3.65711 116.57 3.65711C115.532 3.65711 114.213 3.67818 112.893 4.73943C111.834 5.60479 111.141 6.96827 111.141 9.21836C111.141 13.1792 113.693 16.0587 117.76 16.0587C118.258 16.0587 118.647 16.0587 119.102 15.8628C119.382 15.7333 119.47 15.5389 119.47 15.214V13.526C119.47 12.6176 119.47 11.9247 119.448 11.3618C119.425 10.7342 119.231 10.5397 118.625 10.3667C118.474 10.3226 118.149 10.3015 117.891 10.3015C117.716 10.3015 117.587 10.2152 117.587 10.1066C117.587 9.95478 117.738 9.93353 117.998 9.93353C118.994 9.93353 120.356 9.97671 120.918 9.97671C121.524 9.97671 122.519 9.93353 123.147 9.93353C123.405 9.93353 123.535 9.95478 123.535 10.1066C123.535 10.2152 123.428 10.3015 123.298 10.3015C123.147 10.3015 122.995 10.3226 122.779 10.3667C122.26 10.4533 122.065 10.7122 122.043 11.3618C122.022 11.9247 122.022 12.6598 122.022 13.5692V15.6045" fill="#979797"/>
<path d="M132.851 14.3267C132.895 15.7558 133.133 16.1881 133.501 16.317C133.825 16.4257 134.193 16.4478 134.495 16.4478C134.712 16.4478 134.821 16.534 134.821 16.6422C134.821 16.7937 134.647 16.8372 134.388 16.8372C133.155 16.8372 132.268 16.7721 131.922 16.7721C131.749 16.7721 130.841 16.8372 129.867 16.8372C129.608 16.8372 129.434 16.8162 129.434 16.6422C129.434 16.534 129.564 16.4478 129.738 16.4478C129.997 16.4478 130.343 16.4257 130.602 16.3614C131.1 16.2312 131.165 15.7333 131.186 14.1321L131.359 3.22398C131.359 2.85701 131.489 2.59728 131.684 2.59728C131.922 2.59728 132.181 2.87898 132.507 3.20291C132.744 3.44107 135.599 6.36231 138.368 9.06748C139.666 10.3451 142.197 12.9415 142.478 13.2012H142.564L142.37 5.02075C142.347 3.8953 142.176 3.57096 141.721 3.39741C141.439 3.28908 140.985 3.28908 140.726 3.28908C140.487 3.28908 140.423 3.20291 140.423 3.09463C140.423 2.94318 140.618 2.92126 140.899 2.92126C141.893 2.92126 142.911 2.96479 143.322 2.96479C143.538 2.96479 144.252 2.92126 145.182 2.92126C145.442 2.92126 145.615 2.94318 145.615 3.09463C145.615 3.20291 145.505 3.28908 145.29 3.28908C145.096 3.28908 144.944 3.28908 144.707 3.35441C144.187 3.50618 144.036 3.83051 144.014 4.8688L143.798 16.4689C143.798 16.8809 143.646 17.0535 143.495 17.0535C143.17 17.0535 142.911 16.8588 142.716 16.6644C141.526 15.56 139.147 13.2884 137.157 11.3618C135.08 9.3711 133.068 7.14167 132.701 6.81648H132.636L132.851 14.3267" fill="#979797"/>
<path d="M156.234 12.0541C156.234 11.059 156.061 10.6694 155.801 10.1281C155.672 9.84732 153.076 5.80064 152.405 4.82659C151.93 4.15582 151.54 3.72217 151.173 3.52718C150.935 3.39734 150.61 3.28902 150.372 3.28902C150.22 3.28902 150.091 3.22392 150.091 3.09457C150.091 2.96473 150.22 2.92119 150.458 2.92119C150.783 2.92119 152.211 2.96472 152.838 2.96472C153.249 2.96472 154.135 2.92119 155.002 2.92119C155.174 2.92119 155.282 2.96473 155.282 3.09457C155.282 3.24638 155.153 3.24638 154.85 3.33309C154.699 3.37537 154.589 3.46262 154.589 3.61443C154.589 3.76588 154.677 3.98226 154.828 4.24199C155.174 4.80503 157.662 9.11126 157.987 9.63077C158.225 9.19708 160.539 5.25921 160.82 4.69621C161.014 4.28516 161.101 3.96033 161.101 3.72217C161.101 3.54965 161.014 3.37537 160.691 3.31117C160.517 3.26799 160.344 3.24638 160.344 3.09457C160.344 2.96473 160.453 2.92119 160.668 2.92119C161.296 2.92119 161.966 2.96472 162.529 2.96472C162.94 2.96472 164.195 2.92119 164.563 2.92119C164.778 2.92119 164.908 2.96473 164.908 3.073C164.908 3.20285 164.756 3.28902 164.54 3.28902C164.346 3.28902 163.999 3.37537 163.718 3.50611C163.308 3.7011 163.135 3.87398 162.724 4.37098C162.097 5.10739 159.371 9.47931 159.025 10.2575C158.744 10.9287 158.787 11.4921 158.787 12.0981V13.5692C158.787 13.8724 158.787 14.6302 158.83 15.4084C158.873 15.949 159.046 16.2957 159.609 16.3824C159.89 16.4256 160.302 16.4477 160.56 16.4477C160.777 16.4477 160.885 16.555 160.885 16.6422C160.885 16.7721 160.734 16.8372 160.474 16.8372C159.284 16.8372 158.008 16.7721 157.489 16.7721C157.014 16.7721 155.737 16.8372 155.023 16.8372C154.764 16.8372 154.613 16.7936 154.613 16.6422C154.613 16.555 154.699 16.4477 154.915 16.4477C155.174 16.4477 155.411 16.4256 155.586 16.3824C155.975 16.2957 156.126 15.949 156.169 15.4084C156.234 14.6302 156.234 13.8724 156.234 13.5692V12.0541" fill="#979797"/>
<path d="M14.6438 33.4095C14.6438 28.5618 11.8537 25.5539 8.3065 25.5539C5.81818 25.5539 2.98454 26.9395 2.98454 32.3276C2.98454 36.8295 5.4724 40.3995 9.62588 40.3995C11.1393 40.3995 14.6438 39.6645 14.6438 33.4095V33.4095ZM0 32.9979C0 29.2982 2.44385 24.5151 8.93385 24.5151C14.32 24.5151 17.6724 27.6534 17.6724 32.6084C17.6724 37.5644 14.2109 41.4827 8.71696 41.4827C2.50853 41.4827 0 36.8295 0 32.9979Z" fill="#979797"/>
<path d="M25.4367 32.5873C25.4367 29.7954 25.4367 29.2768 25.4142 28.6918C25.3711 28.0637 25.1987 27.8693 24.5924 27.6959C24.4411 27.6532 24.1164 27.632 23.8357 27.632C23.6408 27.632 23.5111 27.5669 23.5111 27.4361C23.5111 27.3063 23.6619 27.2641 23.944 27.2641C24.9382 27.2641 26.1503 27.3063 26.6914 27.3063C27.4696 27.3063 28.9835 27.2641 29.8493 27.2641C32.2289 27.2641 33.0934 28.0423 33.396 28.3019C33.8083 28.6918 34.3481 29.5146 34.3481 30.5093C34.3481 33.1069 32.2716 34.9679 29.5677 34.9679C29.4815 34.9679 29.0926 34.9679 29.005 34.9454C28.8968 34.9454 28.7679 34.8812 28.7679 34.7519C28.7679 34.6004 28.9835 34.5132 29.3953 34.5132C30.4546 34.5132 31.9473 33.4093 31.9473 31.5272C31.9473 30.9207 31.8822 29.7096 30.8224 28.7998C30.1299 28.1936 29.3513 28.1074 28.9192 28.1074C28.6386 28.1074 28.2703 28.1285 28.097 28.1936C27.9888 28.2376 27.9461 28.3456 27.9461 28.5405V35.8333C27.9461 37.5222 27.9461 38.9714 28.0319 39.7726C28.097 40.2919 28.2052 40.6378 28.7679 40.7245C29.0486 40.7672 29.4604 40.7896 29.741 40.7896C29.9566 40.7896 30.0437 40.8979 30.0437 40.9843C30.0437 41.1141 29.8924 41.1787 29.6975 41.1787C28.4217 41.1787 27.0807 41.1141 26.5827 41.1141C26.1503 41.1141 24.9382 41.1787 24.1811 41.1787C23.944 41.1787 23.8133 41.1141 23.8133 40.9843C23.8133 40.8979 23.8789 40.7896 24.1164 40.7896C24.398 40.7896 24.6149 40.7672 24.7869 40.7245C25.1767 40.6378 25.2849 40.2919 25.35 39.7505C25.4367 38.9714 25.4367 37.5222 25.4367 35.8333V32.5873" fill="#979797"/>
<path d="M42.6503 32.5874C42.6503 29.7955 42.6503 29.2769 42.6292 28.692C42.5856 28.0639 42.4132 27.8694 41.8074 27.696C41.656 27.6533 41.3309 27.6321 41.0502 27.6321C40.8553 27.6321 40.726 27.567 40.726 27.4363C40.726 27.3064 40.8769 27.2643 41.1575 27.2643C42.1536 27.2643 43.3652 27.3064 43.9059 27.3064C44.5112 27.3064 48.7289 27.328 49.0967 27.3064C49.4434 27.2853 49.7456 27.2202 49.8974 27.199C50.0061 27.1765 50.1138 27.1123 50.2005 27.1123C50.3083 27.1123 50.3303 27.199 50.3303 27.2853C50.3303 27.4152 50.2216 27.6321 50.1794 28.4754C50.157 28.6704 50.1139 29.4702 50.0698 29.6872C50.0487 29.7734 50.0061 29.99 49.8543 29.99C49.7245 29.99 49.7021 29.9042 49.7021 29.7523C49.7021 29.6221 49.6809 29.2982 49.5736 29.0811C49.4214 28.7576 49.27 28.4966 48.3185 28.4103C47.9933 28.3671 45.7219 28.3245 45.333 28.3245C45.2468 28.3245 45.2028 28.3892 45.2028 28.4966V33.0419C45.2028 33.1499 45.2248 33.2369 45.333 33.2369C45.7659 33.2369 48.2322 33.2369 48.6642 33.1934C49.1183 33.1499 49.3989 33.107 49.5736 32.9117C49.7245 32.7819 49.7892 32.6741 49.8763 32.6741C49.9625 32.6741 50.0276 32.7602 50.0276 32.8686C50.0276 32.9763 49.9836 33.2796 49.8763 34.2106C49.8323 34.5784 49.7892 35.3136 49.7892 35.4444C49.7892 35.5953 49.7667 35.8549 49.5947 35.8549C49.4645 35.8549 49.4214 35.7911 49.4214 35.7039C49.3989 35.5095 49.3989 35.2713 49.3567 35.0328C49.2476 34.6648 49.01 34.384 48.2965 34.3189C47.9507 34.2752 45.787 34.2325 45.3119 34.2325C45.2248 34.2325 45.2028 34.3189 45.2028 34.4272V35.8986C45.2028 36.5262 45.1817 38.0834 45.2028 38.6251C45.2468 39.88 45.8306 40.1622 47.7778 40.1622C48.2749 40.1622 49.0756 40.1411 49.5736 39.924C50.0487 39.7071 50.2652 39.3184 50.395 38.5614C50.4376 38.3656 50.4816 38.2792 50.611 38.2792C50.7623 38.2792 50.7843 38.5169 50.7843 38.7124C50.7843 39.123 50.6334 40.3782 50.5239 40.7462C50.395 41.2217 50.2216 41.2217 49.5085 41.2217C48.0809 41.2217 46.9331 41.2004 46.0039 41.1564C45.0735 41.1353 44.3599 41.1143 43.7976 41.1143C43.5807 41.1143 43.1698 41.1353 42.7154 41.1353C42.2614 41.1564 41.7858 41.1789 41.3956 41.1789C41.1575 41.1789 41.0287 41.1143 41.0287 40.9844C41.0287 40.8981 41.0924 40.7898 41.3309 40.7898C41.6125 40.7898 41.8285 40.7673 42.0018 40.7247C42.392 40.638 42.4994 40.2921 42.564 39.7506C42.6503 38.9716 42.6503 37.5223 42.6503 35.8335V32.5874" fill="#979797"/>
<path d="M61.43 34.0155C61.43 34.2105 61.474 34.275 61.6033 34.3398C62.0142 34.47 62.5764 34.5132 63.0529 34.5132C63.8096 34.5132 64.0692 34.4489 64.3943 34.2105C64.9785 33.7989 65.6266 32.9977 65.6266 31.4837C65.6266 28.8865 63.8536 28.2157 62.7282 28.2157C62.2518 28.2157 61.7978 28.2376 61.6033 28.2799C61.474 28.3243 61.43 28.3891 61.43 28.5405V34.0155ZM59.0077 32.5873C59.0077 29.7954 59.0077 29.2768 58.9857 28.6918C58.943 28.0637 58.7701 27.8693 58.1639 27.6959C58.0125 27.6532 57.6874 27.632 57.4067 27.632C57.2123 27.632 57.082 27.5669 57.082 27.4361C57.082 27.3063 57.2334 27.2641 57.5149 27.2641C58.5101 27.2641 59.7212 27.3063 60.1106 27.3063C60.7591 27.3063 62.4902 27.2641 63.074 27.2641C64.2861 27.2641 65.6701 27.371 66.6868 28.0423C67.2279 28.4101 68.0277 29.3412 68.0277 30.5744C68.0277 31.9379 67.2491 33.1497 65.3885 34.6427C67.0766 36.7207 68.4166 38.3865 69.564 39.5348C70.6234 40.5952 71.2938 40.681 71.597 40.7461C71.7919 40.7896 71.8997 40.7896 72.051 40.7896C72.2023 40.7896 72.289 40.8979 72.289 40.9843C72.289 41.1352 72.1601 41.1787 71.9217 41.1787H70.1043C69.0444 41.1787 68.5253 41.0704 68.0277 40.8112C67.2059 40.3993 66.4924 39.5348 65.4326 38.1057C64.675 37.1096 63.8747 35.8772 63.6372 35.5952C63.528 35.4869 63.4207 35.4653 63.2905 35.4653L61.5809 35.423C61.4951 35.423 61.43 35.4653 61.43 35.5739V35.8333C61.43 37.5432 61.452 38.9714 61.5386 39.7505C61.6033 40.2919 61.6904 40.6378 62.2742 40.7245C62.5549 40.7672 62.9667 40.7896 63.2043 40.7896C63.3556 40.7896 63.4418 40.8979 63.4418 40.9843C63.4418 41.1141 63.2905 41.1787 63.0529 41.1787C61.9491 41.1787 60.3702 41.1141 60.0886 41.1141C59.7212 41.1141 58.5101 41.1787 57.753 41.1787C57.5149 41.1787 57.3852 41.1141 57.3852 40.9843C57.3852 40.8979 57.4503 40.7896 57.6874 40.7896C57.969 40.7896 58.1859 40.7672 58.3583 40.7245C58.7486 40.6378 58.8563 40.2919 58.9219 39.7505C59.0077 38.9714 59.0077 37.5222 59.0077 35.8333V32.5873" fill="#979797"/>
<path d="M83.0547 35.5304C83.1413 35.5304 83.1629 35.4869 83.1413 35.423L81.3455 30.7473C81.3235 30.6827 81.3024 30.5744 81.2597 30.5744C81.1946 30.5744 81.1721 30.6827 81.151 30.7473L79.3125 35.4005C79.2694 35.4869 79.3125 35.5304 79.3772 35.5304H83.0547ZM78.9883 36.5476C78.8805 36.5476 78.8576 36.5687 78.8154 36.6775L77.7978 39.1448C77.6038 39.599 77.5171 40.0534 77.5171 40.27C77.5171 40.5952 77.6905 40.7896 78.2738 40.7896H78.5545C78.7939 40.7896 78.8365 40.876 78.8365 40.9843C78.8365 41.1352 78.7292 41.1787 78.5334 41.1787C77.9074 41.1787 77.02 41.1141 76.4142 41.1141C76.2189 41.1141 75.2022 41.1787 74.207 41.1787C73.9695 41.1787 73.8612 41.1352 73.8612 40.9843C73.8612 40.876 73.9264 40.7896 74.0781 40.7896C74.2515 40.7896 74.4675 40.7672 74.6399 40.7672C75.5053 40.6378 75.8304 40.0748 76.2189 39.1448L81.1946 27.5669C81.4106 27.047 81.5624 26.831 81.7568 26.831C82.038 26.831 82.1246 27.003 82.32 27.4151C82.774 28.4318 85.953 35.9635 87.1637 38.7545C87.8997 40.4212 88.4408 40.6599 88.7871 40.7245C89.0686 40.7672 89.2851 40.7896 89.5007 40.7896C89.6744 40.7896 89.7602 40.8535 89.7602 40.9843C89.7602 41.1352 89.652 41.1787 88.9384 41.1787C88.2675 41.1787 86.883 41.1787 85.2825 41.1352C84.9363 41.1141 84.7207 41.1141 84.7207 40.9843C84.7207 40.876 84.7629 40.8112 84.9587 40.7896C85.0885 40.7672 85.2169 40.5952 85.1307 40.3781L83.6604 36.6775C83.6169 36.5687 83.5522 36.5476 83.466 36.5476H78.9883" fill="#979797"/>
<path d="M113.711 31.6999C113.775 31.6999 113.84 31.6571 113.84 31.5485V31.0942C113.84 27.8045 113.84 27.1988 113.797 26.5065C113.754 25.7706 113.581 25.4233 112.867 25.2724C112.694 25.2288 112.326 25.2073 112.023 25.2073C111.786 25.2073 111.656 25.165 111.656 25.0132C111.656 24.8617 111.807 24.8182 112.11 24.8182C113.279 24.8182 114.641 24.8829 115.225 24.8829C115.744 24.8829 117.107 24.8182 117.95 24.8182C118.253 24.8182 118.404 24.8617 118.404 25.0132C118.404 25.165 118.275 25.2073 118.015 25.2073C117.842 25.2073 117.648 25.2288 117.388 25.2724C116.804 25.3806 116.631 25.7482 116.588 26.5065C116.544 27.1988 116.544 27.8045 116.544 31.0942V34.9032C116.544 36.894 116.544 38.6034 116.653 39.5348C116.718 40.141 116.847 40.6162 117.496 40.7021C117.798 40.7461 118.275 40.7896 118.6 40.7896C118.837 40.7896 118.946 40.8535 118.946 40.9632C118.946 41.1141 118.773 41.1787 118.512 41.1787C117.107 41.1787 115.744 41.1141 115.138 41.1141C114.641 41.1141 113.279 41.1787 112.434 41.1787C112.131 41.1787 111.979 41.1141 111.979 40.9632C111.979 40.8535 112.067 40.7896 112.326 40.7896C112.65 40.7896 112.911 40.7461 113.104 40.7021C113.537 40.6162 113.645 40.141 113.733 39.512C113.84 38.6034 113.84 36.894 113.84 34.9032V32.9977C113.84 32.9115 113.775 32.8684 113.711 32.8684H105.448C105.383 32.8684 105.317 32.8905 105.317 32.9977V34.9032C105.317 36.894 105.317 38.6034 105.427 39.5348C105.49 40.141 105.62 40.6162 106.269 40.7021C106.573 40.7461 107.048 40.7896 107.373 40.7896C107.61 40.7896 107.718 40.8535 107.718 40.9632C107.718 41.1141 107.546 41.1787 107.286 41.1787C105.881 41.1787 104.517 41.1141 103.911 41.1141C103.415 41.1141 102.052 41.1787 101.186 41.1787C100.904 41.1787 100.753 41.1141 100.753 40.9632C100.753 40.8535 100.84 40.7896 101.1 40.7896C101.423 40.7896 101.684 40.7461 101.878 40.7021C102.311 40.6162 102.419 40.141 102.506 39.512C102.613 38.6034 102.613 36.894 102.613 34.9032V31.0942C102.613 27.8045 102.613 27.1988 102.57 26.5065C102.527 25.7706 102.355 25.4233 101.64 25.2724C101.467 25.2288 101.1 25.2073 100.797 25.2073C100.559 25.2073 100.429 25.165 100.429 25.0132C100.429 24.8617 100.58 24.8182 100.883 24.8182C102.052 24.8182 103.415 24.8829 103.998 24.8829C104.517 24.8829 105.881 24.8182 106.723 24.8182C107.027 24.8182 107.177 24.8617 107.177 25.0132C107.177 25.165 107.048 25.2073 106.789 25.2073C106.616 25.2073 106.421 25.2288 106.161 25.2724C105.577 25.3806 105.404 25.7482 105.361 26.5065C105.317 27.1988 105.317 27.8045 105.317 31.0942V31.5485C105.317 31.6571 105.383 31.6999 105.448 31.6999H113.711" fill="#979797"/>
<path d="M138.177 34.5559C138.177 30.4882 135.732 27.9771 132.66 27.9771C130.541 27.9771 128.054 29.1022 128.054 33.6475C128.054 37.4345 130.216 40.4213 133.807 40.4213C135.148 40.4213 138.177 39.7937 138.177 34.5559V34.5559ZM125.241 34.2106C125.241 31.0722 127.447 27.0031 133.223 27.0031C138.025 27.0031 141.01 29.6659 141.01 33.8857C141.01 38.1058 137.939 41.4175 133.028 41.4175C127.491 41.4175 125.241 37.4782 125.241 34.2106Z" fill="#979797"/>
<path d="M148.705 32.5873C148.705 29.7955 148.727 29.2769 148.682 28.6919C148.639 28.0424 148.466 27.8693 147.86 27.696C147.709 27.6533 147.385 27.6321 147.125 27.6321C146.91 27.6321 146.8 27.567 146.8 27.4362C146.8 27.3064 146.931 27.2642 147.212 27.2642C148.228 27.2642 149.504 27.3063 150.067 27.3063C150.543 27.3063 151.818 27.2642 152.512 27.2642C152.792 27.2642 152.922 27.3064 152.922 27.4362C152.922 27.567 152.814 27.6321 152.62 27.6321C152.403 27.6321 152.296 27.6533 152.058 27.696C151.56 27.7835 151.408 28.0424 151.364 28.6919C151.322 29.2769 151.322 29.7955 151.322 32.5873V35.1621C151.322 37.846 151.841 38.8848 152.771 39.6207C153.614 40.292 154.524 40.3571 155.172 40.3571C155.994 40.3571 156.967 40.1186 157.724 39.3822C158.784 38.3866 158.828 36.7858 158.828 34.9033V32.5873C158.828 29.7955 158.807 29.2769 158.784 28.6919C158.742 28.0638 158.59 27.8693 157.985 27.696C157.834 27.6533 157.508 27.6321 157.292 27.6321C157.076 27.6321 156.967 27.567 156.967 27.4362C156.967 27.3064 157.098 27.2642 157.356 27.2642C158.33 27.2642 159.606 27.3063 159.628 27.3063C159.844 27.3063 161.121 27.2642 161.856 27.2642C162.116 27.2642 162.245 27.3064 162.245 27.4362C162.245 27.567 162.137 27.6321 161.921 27.6321C161.704 27.6321 161.597 27.6533 161.359 27.696C160.84 27.7835 160.71 28.0424 160.666 28.6919C160.644 29.2769 160.623 29.7955 160.623 32.5873V34.5559C160.623 36.6125 160.406 38.7771 158.807 40.0961C157.466 41.2216 156.015 41.4175 154.783 41.4175C153.788 41.4175 151.818 41.3734 150.435 40.1621C149.462 39.3183 148.705 37.9543 148.705 35.2923V32.5873" fill="#979797"/>
<path d="M169.252 40.9408C168.949 40.8113 168.884 40.7246 168.884 40.3131C168.884 39.3183 168.971 38.1709 168.992 37.8676C168.992 37.5868 169.08 37.3918 169.231 37.3918C169.403 37.3918 169.425 37.5644 169.425 37.6942C169.425 37.9324 169.49 38.3218 169.599 38.6472C170.009 40.0103 171.436 40.4645 172.626 40.4645C174.27 40.4645 175.265 39.4257 175.265 38.1274C175.265 37.3262 175.071 36.5261 173.383 35.5305L172.281 34.8813C170.031 33.5613 169.295 32.3276 169.295 30.7053C169.295 28.4543 171.459 27.0031 174.098 27.0031C175.33 27.0031 176.303 27.1765 176.802 27.3064C176.974 27.35 177.06 27.4152 177.06 27.545C177.06 27.7835 176.996 28.302 176.996 29.7523C176.996 30.1414 176.909 30.3373 176.758 30.3373C176.629 30.3373 176.564 30.2275 176.564 30.012C176.564 29.8385 176.477 29.2769 176.066 28.7999C175.784 28.4543 175.179 27.935 173.947 27.935C172.584 27.935 171.35 28.6479 171.35 29.9041C171.35 30.7263 171.653 31.3755 173.362 32.3276L174.14 32.7602C176.65 34.1458 177.428 35.5521 177.428 37.219C177.428 38.5824 176.909 39.686 175.526 40.66C174.617 41.3083 173.362 41.4175 172.344 41.4175C171.242 41.4175 170.074 41.3083 169.252 40.9408" fill="#979797"/>
<path d="M185.863 32.5874C185.863 29.7955 185.863 29.2769 185.842 28.692C185.799 28.0639 185.626 27.8694 185.02 27.696C184.869 27.6533 184.544 27.6321 184.263 27.6321C184.069 27.6321 183.939 27.567 183.939 27.4363C183.939 27.3064 184.09 27.2643 184.371 27.2643C185.367 27.2643 186.578 27.3064 187.118 27.3064C187.723 27.3064 191.942 27.328 192.31 27.3064C192.656 27.2853 192.959 27.2202 193.11 27.199C193.22 27.1765 193.327 27.1123 193.413 27.1123C193.522 27.1123 193.543 27.199 193.543 27.2853C193.543 27.4152 193.435 27.6321 193.392 28.4754C193.37 28.6704 193.327 29.4702 193.283 29.6872C193.262 29.7734 193.22 29.99 193.068 29.99C192.938 29.99 192.916 29.9042 192.916 29.7523C192.916 29.6221 192.894 29.2982 192.786 29.0811C192.635 28.7576 192.484 28.4966 191.531 28.4103C191.207 28.3671 188.936 28.3245 188.546 28.3245C188.459 28.3245 188.417 28.3892 188.417 28.4966V33.0419C188.417 33.1499 188.438 33.2369 188.546 33.2369C188.979 33.2369 191.445 33.2369 191.878 33.1934C192.332 33.1499 192.612 33.107 192.786 32.9117C192.938 32.7819 193.003 32.6741 193.089 32.6741C193.175 32.6741 193.241 32.7602 193.241 32.8686C193.241 32.9763 193.196 33.2796 193.089 34.2106C193.045 34.5784 193.003 35.3136 193.003 35.4444C193.003 35.5953 192.981 35.8549 192.807 35.8549C192.678 35.8549 192.635 35.7911 192.635 35.7039C192.612 35.5095 192.612 35.2713 192.57 35.0328C192.462 34.6648 192.223 34.384 191.51 34.3189C191.163 34.2752 189 34.2325 188.525 34.2325C188.438 34.2325 188.417 34.3189 188.417 34.4272V35.8986C188.417 36.5262 188.394 38.0834 188.417 38.6251C188.459 39.88 189.044 40.1622 190.991 40.1622C191.488 40.1622 192.288 40.1411 192.786 39.924C193.262 39.7071 193.478 39.3184 193.608 38.5614C193.651 38.3656 193.695 38.2792 193.824 38.2792C193.976 38.2792 193.997 38.5169 193.997 38.7124C193.997 39.123 193.846 40.3782 193.737 40.7462C193.608 41.2217 193.435 41.2217 192.721 41.2217C191.293 41.2217 190.147 41.2004 189.216 41.1564C188.287 41.1353 187.572 41.1143 187.011 41.1143C186.794 41.1143 186.382 41.1353 185.928 41.1353C185.474 41.1564 184.999 41.1789 184.609 41.1789C184.371 41.1789 184.242 41.1143 184.242 40.9844C184.242 40.8981 184.306 40.7898 184.544 40.7898C184.826 40.7898 185.042 40.7673 185.215 40.7247C185.604 40.638 185.712 40.2921 185.777 39.7506C185.863 38.9716 185.863 37.5223 185.863 35.8335V32.5874" fill="#979797"/>
</svg>
