<svg width="726" height="139" viewBox="0 0 726 139" fill="none" xmlns="http://www.w3.org/2000/svg">
<path id="MENTS" d="M687.858 43.343L687.812 42.8937C687.339 38.2554 685.246 34.6744 681.521 32.1097L681.515 32.1059C677.833 29.4955 672.518 28.157 665.506 28.157C660.863 28.157 657.025 28.6966 653.976 29.7586C650.916 30.8244 648.667 32.2798 647.182 34.0996L647.179 34.1039C645.692 35.885 644.929 37.9264 644.883 40.246L644.883 40.2532L644.883 40.2603C644.79 42.1643 645.206 43.817 646.116 45.2396C647.091 46.687 648.493 47.9854 650.341 49.1274C652.251 50.2333 654.552 51.218 657.252 52.0778C659.958 52.9397 663.008 53.6955 666.404 54.3443L666.409 54.3453L679.268 56.9516C679.269 56.9517 679.27 56.9518 679.27 56.9519C686.702 58.3908 693.265 60.3112 698.954 62.7168C704.693 65.1225 709.516 67.9938 713.412 71.3365C717.36 74.6815 720.354 78.5397 722.384 82.9112C724.415 87.2851 725.451 92.1797 725.5 97.5863L725.5 97.5938C725.451 106.122 723.033 113.467 718.231 119.603C713.435 125.731 706.552 130.407 697.617 133.647C688.728 136.887 678.02 138.5 665.506 138.5C652.94 138.5 641.966 136.822 632.593 133.452C623.209 130.079 615.888 124.943 610.656 118.032C605.414 111.108 602.735 102.373 602.588 91.8624L602.581 91.3554H603.088H637.732H638.199L638.231 91.8215C638.517 96.0398 639.78 99.5224 641.996 102.297C644.221 105.083 647.282 107.206 651.206 108.657C655.184 110.111 659.801 110.843 665.067 110.843C669.903 110.843 673.986 110.261 677.33 109.11L677.332 109.11C680.734 107.956 683.306 106.367 685.085 104.363C686.858 102.366 687.761 100.093 687.809 97.5264C687.761 95.1326 686.932 93.1055 685.317 91.419L685.313 91.4147C683.682 89.6689 681.131 88.1393 677.613 86.8501L677.605 86.8474C674.131 85.5135 669.677 84.2818 664.235 83.1552L664.234 83.1551L648.595 79.8966L687.858 43.343ZM687.858 43.343H688.309M687.858 43.343H688.309M688.309 43.343H722.954H723.459L723.454 42.8371C723.355 34.4379 720.911 27.0339 716.118 20.6438C711.328 14.2596 704.599 9.32117 695.955 5.81708C687.354 2.26708 677.225 0.5 665.579 0.5C654.175 0.5 644.001 2.24581 635.064 5.74857C626.131 9.25019 619.111 14.1413 614.028 20.4342C608.935 26.7392 606.413 34.085 606.461 42.4496M688.309 43.343L617.76 66.9589M617.76 66.9589L617.759 66.9578C610.176 60.9031 606.412 52.7156 606.461 42.4496M617.76 66.9589C625.296 72.9319 635.584 77.2358 648.593 79.8962L617.76 66.9589ZM606.461 42.4496L606.961 42.452L606.462 42.4549C606.462 42.4531 606.461 42.4513 606.461 42.4496ZM1 2.32493H0.5V2.82493V136.305V136.805H1H36.2288H36.7288V136.305V54.3578H37.1453L72.9735 135.66L73.105 135.958H73.4311H95.9424H96.2678L96.3996 135.661L132.227 54.814H132.645V136.305V136.805H133.145H168.374H168.874V136.305V2.82493V2.32493H168.374H123.57H123.25L123.116 2.61602L85.2434 84.9681H84.1301L46.2577 2.61602L46.1239 2.32493H45.8035H1ZM190.44 136.305V136.805H190.94H295.311H295.811V136.305V110.105V109.605H295.311H227.619V83.1656H289.975H290.475V82.6656V56.3996V55.8996H289.975H227.619V29.5257H295.311H295.811V29.0257V2.82493V2.32493H295.311H190.94H190.44V2.82493V136.305ZM445.862 2.82493V2.32493H445.362H409.256H408.756V2.82493V79.2326H408.26L349.501 2.52089L349.351 2.32493H349.104H317.968H317.468V2.82493V136.305V136.805H317.968H354.147H354.647V136.305V59.7674H354.852L414.269 136.611L414.419 136.805H414.665H445.362H445.862V136.305V2.82493ZM462.714 29.0257V29.5257H463.214H508.175V136.305V136.805H508.675H544.343H544.843V136.305V29.5257H589.731H590.231V29.0257V2.82493V2.32493H589.731H463.214H462.714V2.82493V29.0257Z" stroke="white"/>
</svg>
