<svg width="723" height="137" viewBox="0 0 723 137" fill="none" xmlns="http://www.w3.org/2000/svg">
<path d="M0 1.82493H44.7416L82.6953 84.4681H84.447L122.401 1.82493H167.142V135.305H131.962V53.314H130.721L94.8113 134.458H72.331L36.421 52.8578H35.1802V135.305H0V1.82493Z" fill="white"/>
<path d="M189.677 135.305V1.82493H293.904V28.0257H225.806V55.3996H288.576V81.6656H225.806V109.105H293.904V135.305H189.677Z" fill="white"/>
<path d="M443.748 1.82493V135.305H413.093L353.608 58.2674H352.659V135.305H316.53V1.82493H347.623L406.451 78.7326H407.692V1.82493H443.748Z" fill="white"/>
<path d="M461.576 28.0257V1.82493H587.918V28.0257H542.592V135.305H506.974V28.0257H461.576Z" fill="white"/>
<path d="M686.36 41.843C685.874 37.0634 683.708 33.3484 679.864 30.6979C676.069 28.004 670.643 26.657 663.588 26.657C658.917 26.657 655.024 27.2001 651.91 28.2864C648.796 29.3727 646.46 30.8717 644.903 32.7835C643.346 34.6519 642.543 36.8027 642.494 39.236C642.397 41.2347 642.835 42.9944 643.808 44.5152C644.83 46.036 646.29 47.383 648.187 48.5561C650.134 49.6859 652.469 50.6852 655.194 51.5542C657.919 52.4233 660.985 53.1836 664.391 53.8354L677.237 56.4424C684.633 57.8763 691.153 59.7881 696.797 62.1779C702.49 64.5677 707.259 67.4137 711.103 70.716C714.996 74.0182 717.94 77.8202 719.935 82.1218C721.93 86.4234 722.951 91.2464 723 96.5909C722.951 105.02 720.567 112.255 715.847 118.294C711.127 124.334 704.339 128.962 695.484 132.177C686.676 135.392 676.044 137 663.588 137C651.083 137 640.183 135.327 630.889 131.981C621.595 128.636 614.37 123.552 609.212 116.73C604.054 109.909 601.402 101.284 601.256 90.8554H635.852C636.144 95.157 637.434 98.7417 639.721 101.609C642.008 104.477 645.146 106.65 649.136 108.127C653.175 109.604 657.846 110.343 663.15 110.343C668.016 110.343 672.152 109.756 675.558 108.583C679.013 107.41 681.665 105.781 683.514 103.695C685.363 101.609 686.311 99.2196 686.36 96.5257C686.311 94.0055 685.436 91.8547 683.732 90.0733C682.029 88.2483 679.402 86.6841 675.85 85.3806C672.346 84.0336 667.87 82.7953 662.42 81.6656L646.801 78.4068C633.857 75.7563 623.663 71.4764 616.219 65.5671C608.774 59.6143 605.076 51.576 605.125 41.452C605.076 33.1963 607.557 25.9618 612.569 19.7483C617.581 13.5349 624.515 8.69014 633.371 5.21409C642.227 1.73803 652.323 0 663.661 0C675.242 0 685.29 1.75975 693.805 5.27925C702.369 8.75531 709.011 13.6435 713.731 19.9439C718.45 26.2442 720.859 33.5439 720.956 41.843H686.36Z" fill="white"/>
</svg>
