<svg width="138" height="138" viewBox="0 0 138 138" fill="none" xmlns="http://www.w3.org/2000/svg">
<path d="M52 85H80" stroke="#F54E51" stroke-width="4" stroke-linecap="round" stroke-linejoin="round"/>
<path d="M80 61L80 73H82C85.3137 73 88 70.3137 88 67C88 63.6863 85.3137 61 82 61L80 61Z" stroke="#F54E51" stroke-width="4" stroke-linecap="round" stroke-linejoin="round"/>
<path d="M80 61H52V71C52 78.732 58.268 85 66 85C73.732 85 80 78.732 80 71V61Z" stroke="#F54E51" stroke-width="4" stroke-linecap="round" stroke-linejoin="round"/>
<path d="M74 51L72 55" stroke="#F54E51" stroke-width="4" stroke-linecap="round" stroke-linejoin="round"/>
<path d="M68 51L66 55" stroke="#F54E51" stroke-width="4" stroke-linecap="round" stroke-linejoin="round"/>
<path d="M62 51L60 55" stroke="#F54E51" stroke-width="4" stroke-linecap="round" stroke-linejoin="round"/>
<path d="M54 62C54 61.4477 54.4477 61 55 61H79C79.5523 61 80 61.4477 80 62V75C80 79.9706 75.9706 84 71 84H63C58.0294 84 54 79.9706 54 75V62Z" fill="#FE4A4A"/>
<path d="M137 69.5C137 107.332 106.332 138 68.5 138C30.6685 138 0 107.332 0 69.5C0 31.6685 30.6685 1 68.5 1C106.332 1 137 31.6685 137 69.5ZM25.6522 69.5C25.6522 93.1642 44.8358 112.348 68.5 112.348C92.1642 112.348 111.348 93.1642 111.348 69.5C111.348 45.8358 92.1642 26.6522 68.5 26.6522C44.8358 26.6522 25.6522 45.8358 25.6522 69.5Z" fill="white"/>
<path d="M97.1228 104.69C98.034 104.023 98.9971 103.563 100.012 103.311C101.036 103.071 102.056 103.024 103.072 103.17C104.085 103.338 105.037 103.695 105.929 104.242C106.808 104.798 107.577 105.525 108.235 106.425C108.894 107.324 109.355 108.277 109.619 109.283C109.871 110.298 109.92 111.308 109.765 112.312C109.597 113.326 109.25 114.279 108.724 115.174C108.185 116.077 107.454 116.866 106.531 117.542C105.537 118.27 104.54 118.745 103.54 118.968C102.549 119.203 101.555 119.249 100.56 119.106L100.997 116.277C101.618 116.404 102.254 116.393 102.907 116.242C103.56 116.091 104.218 115.773 104.881 115.288C105.461 114.863 105.92 114.373 106.258 113.816C106.592 113.28 106.799 112.693 106.877 112.055C106.963 111.428 106.91 110.785 106.718 110.125C106.535 109.478 106.218 108.847 105.768 108.231C105.309 107.604 104.798 107.105 104.236 106.735C103.674 106.365 103.077 106.12 102.445 106.001C101.822 105.894 101.199 105.914 100.579 106.059C99.9462 106.213 99.3401 106.502 98.7602 106.927C98.0619 107.438 97.5423 107.982 97.2012 108.559C96.8482 109.144 96.6431 109.758 96.5858 110.4L93.7571 109.962C93.9125 108.958 94.2578 108.014 94.7931 107.132C95.3285 106.249 96.105 105.435 97.1228 104.69Z" fill="#FF575A"/>
<path d="M85.6439 112.016C86.5795 111.495 87.543 111.236 88.5345 111.238C89.5203 111.26 90.4407 111.512 91.2958 111.993C92.1452 112.494 92.8231 113.199 93.3294 114.109C93.8357 115.019 94.0707 115.954 94.0343 116.914C94.0051 117.887 93.7301 118.795 93.2093 119.639C92.6956 120.496 91.9774 121.181 91.0546 121.694C90.1062 122.222 89.1391 122.475 88.1533 122.453C87.1618 122.45 86.245 122.205 85.4027 121.717C84.5676 121.242 83.8969 120.549 83.3905 119.639C82.8842 118.729 82.6421 117.782 82.6642 116.796C82.6934 115.823 82.9649 114.908 83.4786 114.052C83.9866 113.215 84.7083 112.536 85.6439 112.016ZM86.9682 114.35C86.494 114.614 86.1346 114.949 85.8898 115.353C85.6394 115.778 85.5215 116.23 85.536 116.708C85.5449 117.207 85.6849 117.7 85.9559 118.187C86.2269 118.674 86.5683 119.046 86.9802 119.304C87.392 119.561 87.8345 119.693 88.3074 119.698C88.7875 119.716 89.2646 119.593 89.7388 119.33C90.2002 119.073 90.5497 118.736 90.7873 118.318C91.0321 117.913 91.1536 117.468 91.1518 116.982C91.15 116.497 91.0137 116.01 90.7427 115.523C90.4717 115.036 90.1267 114.657 89.7077 114.387C89.2958 114.129 88.8498 113.992 88.3697 113.973C87.8968 113.968 87.4296 114.094 86.9682 114.35Z" fill="#FF575A"/>
<path d="M73.9616 114.733L75.9453 126.335C76.0886 127.173 76.034 127.941 75.7813 128.639C75.5311 129.352 75.1057 129.953 74.5049 130.442C73.9042 130.932 73.1557 131.253 72.2593 131.407C71.5799 131.523 70.9746 131.507 70.4435 131.36C69.9124 131.213 69.4171 130.97 68.9575 130.632L70.446 128.503C70.6322 128.634 70.8267 128.728 71.0294 128.782C71.2322 128.837 71.4782 128.839 71.7673 128.79C72.2878 128.701 72.6678 128.487 72.9075 128.149C73.1352 127.827 73.2046 127.406 73.1156 126.886L71.1208 115.219L73.9616 114.733ZM77.7548 122.298L78.1812 124.792L69.8107 126.223L69.3843 123.729L77.7548 122.298Z" fill="#FF575A"/>
<path d="M60.8166 114.355L59.5487 126.057C59.457 126.902 59.1942 127.626 58.7601 128.228C58.3245 128.845 57.7507 129.307 57.0389 129.613C56.3271 129.919 55.5192 130.024 54.6151 129.926C53.9298 129.852 53.3519 129.671 52.8814 129.384C52.4109 129.097 52.001 128.728 51.6515 128.277L53.666 126.636C53.809 126.814 53.9705 126.957 54.1506 127.065C54.3307 127.173 54.5665 127.243 54.8582 127.275C55.3831 127.331 55.8072 127.23 56.1304 126.97C56.4375 126.723 56.6194 126.337 56.6763 125.812L57.9514 114.045L60.8166 114.355ZM62.3941 122.67L62.1216 125.185L53.679 124.27L53.9515 121.755L62.3941 122.67Z" fill="#FF575A"/>
<path d="M45.3084 108.864C46.3398 109.287 47.1669 109.88 47.7896 110.642C48.4068 111.418 48.7944 112.29 48.9523 113.258C49.0968 114.221 48.966 115.198 48.56 116.188C48.1595 117.166 47.5796 117.942 46.8203 118.519C46.0419 119.103 45.1674 119.458 44.1967 119.583C43.2205 119.722 42.2506 119.594 41.287 119.199C40.337 118.81 39.5914 118.251 39.0501 117.522C38.4896 116.801 38.1588 115.984 38.0575 115.07C37.9372 114.165 38.0688 113.244 38.4526 112.308C38.5249 112.131 38.6136 111.954 38.7186 111.775C38.8044 111.604 38.9218 111.414 39.0706 111.206L47.3439 114.573L46.5263 116.568L39.4948 113.71L40.9158 113.317C40.7038 113.912 40.6121 114.445 40.6408 114.916C40.656 115.382 40.7983 115.789 41.0677 116.137C41.318 116.494 41.6942 116.775 42.1963 116.98C42.7256 117.197 43.2371 117.264 43.7308 117.181C44.2189 117.112 44.6605 116.905 45.0556 116.559C45.4316 116.222 45.7392 115.762 45.9783 115.178C46.223 114.581 46.3286 114.014 46.295 113.477C46.2422 112.948 46.0556 112.475 45.735 112.059C45.4088 111.656 44.9675 111.34 44.4111 111.112C43.9089 110.906 43.4209 110.801 42.9471 110.797C42.4676 110.807 42.0091 110.92 41.5715 111.137L40.6464 108.927C41.3494 108.565 42.1054 108.384 42.9143 108.383C43.7097 108.376 44.5077 108.536 45.3084 108.864Z" fill="#FF575A"/>
<path d="M33.755 99.3907C34.601 100.117 35.1996 100.939 35.5508 101.859C35.8924 102.79 35.9858 103.739 35.8311 104.708C35.6652 105.667 35.2337 106.553 34.5366 107.366C33.849 108.167 33.0541 108.722 32.152 109.03C31.2292 109.34 30.2874 109.402 29.3266 109.215C28.3563 109.04 27.476 108.613 26.6856 107.935C25.9064 107.267 25.3746 106.501 25.0902 105.639C24.7852 104.778 24.7283 103.898 24.9196 103C25.0902 102.102 25.505 101.27 26.1639 100.502C26.2881 100.357 26.4281 100.216 26.5841 100.08C26.7194 99.9444 26.8905 99.8013 27.0973 99.6503L33.8908 105.449L32.4869 107.086L26.712 102.16L28.1843 102.235C27.7959 102.733 27.5412 103.21 27.4201 103.666C27.2879 104.113 27.2948 104.545 27.441 104.96C27.5665 105.377 27.8352 105.762 28.247 106.115C28.6812 106.488 29.1456 106.712 29.6403 106.789C30.1255 106.876 30.6099 106.818 31.0936 106.615C31.5566 106.413 31.9934 106.073 32.4041 105.594C32.8243 105.105 33.1029 104.6 33.2399 104.079C33.3563 103.561 33.3279 103.053 33.1547 102.557C32.972 102.072 32.6524 101.633 32.196 101.242C31.7841 100.888 31.3539 100.635 30.9054 100.482C30.4473 100.341 29.9764 100.304 29.4928 100.372L29.3101 97.9833C30.0913 97.8611 30.866 97.9267 31.6342 98.18C32.3913 98.4237 33.0983 98.8273 33.755 99.3907Z" fill="#FF575A"/>
<path d="M22.2419 72.7301L6.78752 72.1308L6.90345 69.1411L22.3578 69.7403L22.2419 72.7301ZM22.3271 70.5317L19.6671 70.4286L19.9723 62.5585L22.6323 62.6616L22.3271 70.5317Z" fill="#FF575A"/>
<path d="M24.0861 54.7396C23.9137 55.7963 23.519 56.7127 22.902 57.4888C22.2729 58.2481 21.5045 58.8138 20.5968 59.1858C19.6769 59.5411 18.7031 59.6349 17.6754 59.4672C16.6476 59.2996 15.7686 58.9036 15.0382 58.2792C14.2934 57.6524 13.7518 56.8731 13.4134 55.9411C13.0606 55.0068 12.9691 54.0185 13.1391 52.9763C13.3139 51.9051 13.7158 50.9899 14.3449 50.2306C14.9619 49.4545 15.723 48.8876 16.6284 48.53C17.5193 48.1701 18.4786 48.0739 19.5064 48.2416C20.5341 48.4092 21.4277 48.8076 22.187 49.4367C22.9318 50.0634 23.4806 50.8439 23.8335 51.7783C24.1742 52.6958 24.2584 53.6829 24.0861 54.7396ZM21.4335 54.3292C21.5209 53.7936 21.4818 53.3043 21.3163 52.8612C21.1387 52.4013 20.8577 52.0285 20.4734 51.7429C20.0769 51.4405 19.6036 51.2444 19.0535 51.1547C18.5035 51.0649 17.9997 51.1016 17.5421 51.2648C17.0845 51.4279 16.7069 51.6932 16.4092 52.0608C16.097 52.426 15.8972 52.8763 15.8098 53.4119C15.7248 53.933 15.7723 54.4163 15.9523 54.8618C16.1178 55.3049 16.3916 55.6764 16.7736 55.9765C17.1556 56.2766 17.6216 56.4715 18.1717 56.5612C18.7217 56.6509 19.2328 56.6154 19.7048 56.4546C20.1624 56.2915 20.5473 56.0273 20.8595 55.6622C21.1572 55.2946 21.3485 54.8503 21.4335 54.3292Z" fill="#FF575A"/>
<path d="M30.1636 42.0626L18.5922 41.0759L20.1122 38.2963L29.4095 39.544L28.6601 40.9144L22.6032 33.7409L24.0704 31.0578L31.1558 40.2481L30.1636 42.0626Z" fill="#FF575A"/>
<path d="M41.6336 30.4286C40.8201 31.1906 39.9371 31.6961 38.9847 31.9451C38.0223 32.1834 37.068 32.1729 36.1219 31.9137C35.1864 31.6444 34.3527 31.1191 33.6208 30.3377C32.8989 29.5669 32.4339 28.7164 32.2256 27.7861C32.0181 26.8351 32.0593 25.8922 32.3493 24.9574C32.6293 24.0119 33.1493 23.1832 33.9093 22.4714C34.6586 21.7695 35.4773 21.3242 36.3655 21.1353C37.2544 20.9258 38.1351 20.9649 39.0076 21.2529C39.8809 21.5201 40.6634 22.023 41.3553 22.7616C41.4856 22.9008 41.6102 23.0553 41.7292 23.2253C41.8488 23.3744 41.9725 23.5601 42.1001 23.7822L35.5961 29.9042L34.1223 28.3307L39.6468 23.126L39.4124 24.5814C38.9599 24.1412 38.5133 23.836 38.0727 23.666C37.6427 23.4859 37.2134 23.4459 36.7847 23.546C36.3567 23.6254 35.9446 23.8506 35.5486 24.2215C35.1311 24.6126 34.8574 25.0498 34.7274 25.5332C34.5874 26.006 34.5922 26.4938 34.7418 26.9968C34.8921 27.479 35.1827 27.9503 35.6139 28.4106C36.055 28.8816 36.5267 29.2135 37.0288 29.4063C37.5316 29.5784 38.0392 29.6054 38.5515 29.4873C39.0538 29.3584 39.5244 29.0885 39.9633 28.6774C40.3593 28.3064 40.6578 27.9063 40.8586 27.4771C41.0494 27.0371 41.1372 26.573 41.122 26.0849L43.5164 26.1632C43.5528 26.953 43.4034 27.716 43.068 28.4521C42.7433 29.1782 42.2652 29.837 41.6336 30.4286Z" fill="#FF575A"/>
<path d="M77.0673 24.5341C75.9615 24.305 74.9748 23.8984 74.1072 23.3143C73.2426 22.7159 72.5241 21.9904 71.9518 21.138C71.3968 20.2741 71.0236 19.3281 70.8322 18.2999C70.6551 17.2747 70.6796 16.2163 70.9057 15.1248C71.1317 14.0333 71.5296 13.0523 72.0994 12.1817C72.6835 11.3142 73.4003 10.6014 74.2498 10.0434C75.1136 9.48845 76.054 9.10656 77.0708 8.89779C78.1019 8.69199 79.1776 8.7051 80.2979 8.93713C81.5043 9.187 82.5254 9.6082 83.3613 10.2007C84.2001 10.7789 84.9 11.4855 85.4609 12.3206L83.0685 13.8921C82.7472 13.3462 82.3117 12.8816 81.7621 12.4981C81.2124 12.1147 80.5354 11.8396 79.7312 11.6731C79.0275 11.5273 78.3559 11.5155 77.7165 11.6377C77.0944 11.7485 76.5204 11.9891 75.9943 12.3594C75.4712 12.7154 75.0294 13.1855 74.6687 13.7699C74.311 14.3398 74.0548 14.9982 73.9001 15.745C73.7424 16.5062 73.7146 17.2194 73.8164 17.8845C73.9183 18.5497 74.1371 19.1567 74.4727 19.7055C74.8114 20.2399 75.2427 20.6887 75.7666 21.0519C76.3048 21.418 76.9258 21.6739 77.6295 21.8197C78.4769 21.9952 79.2289 22.0162 79.8857 21.8826C80.5568 21.752 81.1497 21.4929 81.6643 21.1052L83.2357 23.4976C82.3863 24.0556 81.4546 24.4318 80.4408 24.6262C79.4269 24.8206 78.3024 24.7899 77.0673 24.5341Z" fill="#FF575A"/>
<path d="M90.2877 26.9962C89.2811 26.6314 88.4535 26.0741 87.8049 25.3242C87.175 24.5655 86.7612 23.7057 86.5634 22.7448C86.3845 21.7751 86.4724 20.8008 86.8272 19.8218C87.182 18.8428 87.7338 18.0521 88.4825 17.4499C89.2362 16.8338 90.1022 16.4457 91.0807 16.2855C92.0642 16.1115 93.0523 16.2044 94.0451 16.5643C95.0655 16.9341 95.8906 17.4983 96.5205 18.257C97.1691 19.0069 97.5854 19.8598 97.7694 20.8157C97.9583 21.7578 97.8754 22.7183 97.5206 23.6973C97.1658 24.6764 96.609 25.4808 95.8503 26.1106C95.0967 26.7267 94.2281 27.1217 93.2446 27.2957C92.2799 27.4609 91.2943 27.361 90.2877 26.9962ZM91.1816 24.4653C91.6918 24.6503 92.1799 24.7024 92.6459 24.6217C93.1308 24.5322 93.5491 24.325 93.9008 24.0001C94.2714 23.6663 94.5516 23.2375 94.7415 22.7135C94.9314 22.1895 94.9885 21.6876 94.9128 21.2078C94.8371 20.7279 94.6462 20.3078 94.3401 19.9472C94.0389 19.5729 93.6333 19.2932 93.1231 19.1083C92.6267 18.9284 92.143 18.8857 91.6719 18.9802C91.2059 19.0609 90.79 19.2612 90.4245 19.5811C90.0589 19.901 89.7812 20.323 89.5913 20.847C89.4014 21.3709 89.3418 21.8797 89.4125 22.3734C89.4882 22.8532 89.6766 23.2803 89.9778 23.6547C90.2839 24.0152 90.6852 24.2854 91.1816 24.4653Z" fill="#FF575A"/>
<path d="M100.069 33.9683L107.503 24.8429C108.04 24.1834 108.654 23.7192 109.346 23.4505C110.047 23.1703 110.78 23.0955 111.544 23.226C112.308 23.3564 113.042 23.7088 113.747 24.2831C114.282 24.7185 114.668 25.1846 114.907 25.6815C115.145 26.1784 115.288 26.7111 115.336 27.2796L112.753 27.5591C112.73 27.3321 112.672 27.1243 112.58 26.9357C112.487 26.747 112.328 26.56 112.1 26.3748C111.691 26.0413 111.28 25.8957 110.867 25.9378C110.475 25.9779 110.112 26.2026 109.779 26.6119L102.303 35.7885L100.069 33.9683ZM103.272 26.1352L104.87 24.1736L111.454 29.537L109.856 31.4986L103.272 26.1352Z" fill="#FF575A"/>
<path d="M108.388 43.9608L118.031 37.2121C118.728 36.7244 119.446 36.4457 120.184 36.3761C120.935 36.2981 121.661 36.4261 122.36 36.7602C123.059 37.0943 123.669 37.6339 124.191 38.3789C124.586 38.9436 124.831 39.4976 124.924 40.0407C125.018 40.5838 125.01 41.1353 124.901 41.6952L122.34 41.2588C122.379 41.0341 122.38 40.8184 122.343 40.6117C122.306 40.4051 122.203 40.1816 122.035 39.9413C121.732 39.5087 121.377 39.2563 120.968 39.1842C120.58 39.1156 120.17 39.2327 119.737 39.5355L110.04 46.322L108.388 43.9608ZM113.608 37.3L115.681 35.8493L120.55 42.8068L118.477 44.2574L113.608 37.3Z" fill="#FF575A"/>
<path d="M114.574 59.2795C114.21 58.2259 114.109 57.2136 114.27 56.2424C114.444 55.2665 114.843 54.3994 115.466 53.6412C116.093 52.8969 116.913 52.3499 117.925 52.0003C118.923 51.6554 119.889 51.5776 120.823 51.7669C121.776 51.9652 122.62 52.3874 123.356 53.0333C124.105 53.6745 124.649 54.4873 124.989 55.4715C125.325 56.4419 125.397 57.3711 125.208 58.259C125.037 59.1561 124.642 59.9443 124.023 60.6236C123.423 61.3119 122.645 61.8214 121.688 62.1518C121.508 62.2141 121.316 62.2649 121.112 62.3042C120.927 62.3526 120.707 62.3898 120.452 62.4158L117.515 53.9806L119.553 53.2766L122.052 60.4433L120.819 59.6358C121.405 59.4021 121.866 59.1188 122.201 58.7858C122.541 58.4667 122.752 58.091 122.836 57.6587C122.938 57.2356 122.9 56.7675 122.723 56.2546C122.536 55.7139 122.249 55.2857 121.86 54.9699C121.486 54.6493 121.038 54.4547 120.518 54.3862C120.016 54.3267 119.467 54.4 118.871 54.6059C118.261 54.8167 117.766 55.112 117.385 55.4918C117.023 55.8808 116.791 56.3332 116.69 56.8491C116.603 57.3603 116.658 57.9001 116.854 58.4684C117.031 58.9814 117.275 59.417 117.585 59.7754C117.909 60.129 118.297 60.3985 118.749 60.5837L117.701 62.738C116.965 62.4492 116.329 62.0016 115.794 61.3952C115.263 60.8026 114.857 60.0974 114.574 59.2795Z" fill="#FF575A"/>
<path d="M115.104 74.2411C115.091 73.1265 115.315 72.1339 115.774 71.2632C116.248 70.3923 116.9 69.6953 117.73 69.1724C118.56 68.664 119.51 68.4037 120.581 68.3913C121.637 68.3791 122.578 68.6102 123.405 69.0846C124.247 69.5736 124.915 70.2406 125.409 71.0856C125.917 71.9304 126.177 72.8735 126.189 73.9147C126.201 74.9413 125.977 75.846 125.517 76.6287C125.071 77.4259 124.448 78.0492 123.646 78.4985C122.86 78.9623 121.96 79.2 120.948 79.2118C120.758 79.214 120.56 79.2016 120.354 79.1746C120.163 79.1622 119.943 79.1281 119.693 79.0723L119.567 70.1411L121.723 70.1162L121.833 77.7054L120.917 76.5499C121.548 76.5133 122.074 76.3899 122.497 76.1796C122.92 75.984 123.24 75.6943 123.455 75.3105C123.686 74.9411 123.798 74.4851 123.791 73.9425C123.785 73.3705 123.647 72.8734 123.378 72.4512C123.124 72.0288 122.761 71.7029 122.289 71.4737C121.832 71.259 121.288 71.1553 120.657 71.1626C120.012 71.1701 119.449 71.2939 118.967 71.5342C118.501 71.7889 118.138 72.1452 117.88 72.6029C117.636 73.0604 117.517 73.5898 117.524 74.1911C117.53 74.7337 117.624 75.224 117.805 75.6619C118.001 76.0997 118.284 76.4778 118.654 76.7962L116.98 78.5097C116.373 78.0033 115.911 77.378 115.594 76.6336C115.278 75.9039 115.114 75.1064 115.104 74.2411Z" fill="#FF575A"/>
</svg>
