<svg width="137" height="137" viewBox="0 0 137 137" fill="none" xmlns="http://www.w3.org/2000/svg">
<path d="M52 84H80" stroke="#F54E51" stroke-width="4" stroke-linecap="round" stroke-linejoin="round"/>
<path d="M80 60L80 72H82C85.3137 72 88 69.3137 88 66C88 62.6863 85.3137 60 82 60L80 60Z" stroke="#F54E51" stroke-width="4" stroke-linecap="round" stroke-linejoin="round"/>
<path d="M80 60H52V70C52 77.732 58.268 84 66 84C73.732 84 80 77.732 80 70V60Z" stroke="#F54E51" stroke-width="4" stroke-linecap="round" stroke-linejoin="round"/>
<path d="M74 50L72 54" stroke="#F54E51" stroke-width="4" stroke-linecap="round" stroke-linejoin="round"/>
<path d="M68 50L66 54" stroke="#F54E51" stroke-width="4" stroke-linecap="round" stroke-linejoin="round"/>
<path d="M62 50L60 54" stroke="#F54E51" stroke-width="4" stroke-linecap="round" stroke-linejoin="round"/>
<path d="M54 61C54 60.4477 54.4477 60 55 60H79C79.5523 60 80 60.4477 80 61V74C80 78.9706 75.9706 83 71 83H63C58.0294 83 54 78.9706 54 74V61Z" fill="#FE4A4A"/>
<path d="M137 68.5C137 106.332 106.332 137 68.5 137C30.6685 137 0 106.332 0 68.5C0 30.6685 30.6685 0 68.5 0C106.332 0 137 30.6685 137 68.5ZM25.6522 68.5C25.6522 92.1642 44.8358 111.348 68.5 111.348C92.1642 111.348 111.348 92.1642 111.348 68.5C111.348 44.8358 92.1642 25.6522 68.5 25.6522C44.8358 25.6522 25.6522 44.8358 25.6522 68.5Z" fill="white"/>
<path d="M106.462 93.5741L117.604 101.372L116.285 103.257L105.143 95.4584L106.462 93.5741ZM118.826 96.6617L120.546 97.8659L113.998 107.222L112.278 106.018L118.826 96.6617Z" fill="#FF575A"/>
<path d="M91.5679 108.102L94.6103 112.732C94.9617 113.267 95.4236 113.594 95.9961 113.712C96.5573 113.838 97.1054 113.725 97.6403 113.374C97.9968 113.139 98.2632 112.853 98.4392 112.514C98.6153 112.175 98.6898 111.815 98.6627 111.434C98.6357 111.052 98.505 110.684 98.2707 110.327L99.253 110.256C99.6557 110.869 99.8771 111.497 99.9172 112.141C99.9647 112.796 99.8422 113.411 99.55 113.986C99.2539 114.579 98.8105 115.07 98.2199 115.458C97.6182 115.853 96.9955 116.071 96.3518 116.111C95.708 116.151 95.095 116.019 94.5127 115.716C93.9378 115.424 93.4453 114.966 93.0353 114.342L89.7294 109.311L91.5679 108.102ZM97.067 104.489L104.975 116.523L103.136 117.732L95.2284 105.697L97.067 104.489Z" fill="#FF575A"/>
<path d="M81.8286 112.608L84.5659 121.81L82.4572 122.437L79.7199 113.236L81.8286 112.608ZM84.0134 123.81C84.3712 123.704 84.7076 123.736 85.0227 123.907C85.325 124.081 85.5293 124.347 85.6358 124.705C85.7422 125.063 85.7165 125.397 85.5587 125.709C85.3882 126.024 85.1239 126.234 84.7661 126.341C84.3955 126.451 84.059 126.419 83.7568 126.245C83.4545 126.07 83.2501 125.804 83.1437 125.446C83.0372 125.088 83.0629 124.754 83.2207 124.443C83.3785 124.131 83.6427 123.921 84.0134 123.81Z" fill="#FF575A"/>
<path d="M68.9128 114.709C69.4459 114.694 69.961 114.745 70.458 114.864C70.9555 114.996 71.4145 115.183 71.8351 115.424C72.2561 115.678 72.6253 115.987 72.9428 116.351L71.5846 117.792C71.24 117.415 70.8516 117.133 70.4192 116.946C69.9739 116.772 69.4781 116.693 68.9316 116.71C68.4385 116.724 68.0675 116.808 67.8186 116.962C67.5697 117.116 67.4493 117.333 67.4576 117.613C67.4662 117.906 67.5928 118.13 67.8374 118.282C68.082 118.435 68.3991 118.559 68.7887 118.655C69.1654 118.764 69.5688 118.872 69.9988 118.979C70.4155 119.087 70.82 119.235 71.2124 119.424C71.5918 119.626 71.9068 119.903 72.1573 120.256C72.4078 120.609 72.5414 121.072 72.5583 121.645C72.5763 122.258 72.4519 122.789 72.1849 123.237C71.9046 123.685 71.5082 124.037 70.9954 124.292C70.4694 124.548 69.8399 124.686 69.1068 124.708C68.3338 124.731 67.65 124.611 67.0554 124.348C66.4478 124.099 65.9361 123.707 65.5202 123.173L66.8784 121.732C67.1685 122.07 67.496 122.321 67.8609 122.484C68.2258 122.646 68.6415 122.721 69.108 122.707C69.5478 122.694 69.8857 122.617 70.1217 122.477C70.3577 122.337 70.4719 122.14 70.4645 121.887C70.4566 121.62 70.3306 121.417 70.0864 121.278C69.8422 121.138 69.5319 121.02 69.1556 120.925C68.766 120.83 68.3626 120.721 67.9456 120.6C67.5156 120.493 67.1106 120.331 66.7308 120.116C66.338 119.914 66.0162 119.63 65.7653 119.264C65.5149 118.911 65.381 118.441 65.3638 117.855C65.3363 116.922 65.6411 116.173 66.2781 115.607C66.915 115.041 67.7933 114.742 68.9128 114.709Z" fill="#FF575A"/>
<path d="M48.2617 110.951L44.1138 119.609L42.1297 118.659L46.2776 110.001L48.2617 110.951ZM42.3613 120.721C42.698 120.882 42.9258 121.132 43.0449 121.47C43.1518 121.802 43.1247 122.137 42.9634 122.473C42.8021 122.81 42.5585 123.041 42.2326 123.165C41.8946 123.284 41.5573 123.263 41.2206 123.102C40.8719 122.935 40.6441 122.685 40.5371 122.353C40.4301 122.021 40.4573 121.687 40.6186 121.35C40.7799 121.013 41.0235 120.782 41.3494 120.658C41.6753 120.533 42.0126 120.554 42.3613 120.721Z" fill="#FF575A"/>
<path d="M37.2784 103.839C37.6841 104.185 38.0312 104.569 38.3199 104.991C38.5999 105.422 38.8149 105.869 38.9648 106.33C39.1061 106.801 39.1722 107.278 39.1631 107.761L37.1893 107.917C37.1868 107.407 37.0882 106.937 36.8935 106.508C36.68 106.08 36.3654 105.689 35.9496 105.334C35.5743 105.014 35.2428 104.827 34.9549 104.774C34.6669 104.721 34.4321 104.801 34.2503 105.014C34.0599 105.237 34.004 105.488 34.0827 105.765C34.1614 106.043 34.3131 106.348 34.538 106.68C34.7441 107.013 34.9704 107.364 35.217 107.733C35.4535 108.092 35.6539 108.474 35.8182 108.877C35.9636 109.281 36.0108 109.698 35.9596 110.128C35.9085 110.558 35.6968 110.991 35.3246 111.427C34.9264 111.893 34.478 112.203 33.9794 112.356C33.4706 112.5 32.9406 112.495 32.3893 112.34C31.8278 112.176 31.2682 111.856 30.7104 111.38C30.1222 110.878 29.6958 110.33 29.4314 109.736C29.1481 109.144 29.0318 108.51 29.0824 107.834L31.0562 107.678C31.0441 108.124 31.1187 108.529 31.28 108.895C31.4413 109.26 31.6994 109.595 32.0544 109.898C32.3891 110.183 32.691 110.353 32.9601 110.408C33.2292 110.462 33.446 110.393 33.6104 110.2C33.7835 109.997 33.8264 109.762 33.7391 109.495C33.6518 109.228 33.5007 108.932 33.286 108.609C33.0612 108.277 32.8348 107.926 32.607 107.556C32.3604 107.188 32.1686 106.796 32.0318 106.381C31.8762 105.968 31.8283 105.541 31.8881 105.102C31.9393 104.672 32.1553 104.234 32.5362 103.788C33.1421 103.078 33.871 102.727 34.7228 102.736C35.5746 102.744 36.4265 103.112 37.2784 103.839Z" fill="#FF575A"/>
<path d="M23.9473 85.9165L11.1982 90.6515L10.4323 88.5892L23.1814 83.8542L23.9473 85.9165ZM17.6236 90.7186L15.7487 91.415L13.3812 85.0404L15.2561 84.3441L17.6236 90.7186Z" fill="#FF575A"/>
<path d="M20.4761 68.173L14.9388 68.3444C14.2991 68.3642 13.7791 68.587 13.3787 69.0129C12.978 69.4255 12.7875 69.9517 12.8073 70.5914C12.8205 71.0178 12.9255 71.3948 13.1224 71.7222C13.3193 72.0496 13.5872 72.3014 13.9261 72.4777C14.2651 72.6539 14.6478 72.7355 15.0743 72.7223L14.6211 73.5967C13.8881 73.6194 13.2368 73.4795 12.6672 73.1769C12.0842 72.8748 11.6242 72.4489 11.287 71.899C10.9361 71.3363 10.7497 70.7017 10.7278 69.9954C10.7056 69.2757 10.8457 68.6311 11.1482 68.0615C11.4507 67.4918 11.8836 67.0382 12.4468 66.7007C12.9966 66.3635 13.6447 66.1834 14.391 66.1603L20.4081 65.9741L20.4761 68.173ZM20.6797 74.7499L6.28654 75.1953L6.2185 72.9963L20.6116 72.5509L20.6797 74.7499Z" fill="#FF575A"/>
<path d="M23.1274 53.4211C22.8198 54.3304 22.34 55.083 21.688 55.6789C21.0277 56.2578 20.2649 56.6402 19.3997 56.8261C18.5388 56.9993 17.66 56.9343 16.7632 56.6309C15.8665 56.3275 15.1349 55.8478 14.5687 55.1917C13.9897 54.5314 13.6115 53.7771 13.434 52.9288C13.2607 52.0679 13.3215 51.2017 13.6163 50.3302C13.9026 49.484 14.3505 48.805 14.9599 48.2933C15.5736 47.769 16.2834 47.4391 17.0894 47.3035C17.8996 47.1554 18.7404 47.2287 19.6119 47.5235C19.7635 47.5748 19.9171 47.6408 20.0727 47.7216C20.22 47.7855 20.382 47.8685 20.5586 47.9704L18.0335 55.4349L16.3284 54.8581L18.4882 48.4735L18.9075 49.481C18.3432 49.3182 17.8396 49.2675 17.3966 49.3288C16.9536 49.3901 16.5712 49.5633 16.2495 49.8486C15.9321 50.1213 15.6879 50.5102 15.517 51.0154C15.3375 51.5459 15.2953 52.0453 15.3901 52.5138C15.485 52.9822 15.7046 53.3943 16.0487 53.75C16.3802 54.1014 16.8302 54.3733 17.3985 54.5656C17.9669 54.7578 18.5043 54.8129 19.0106 54.7309C19.5169 54.6488 19.9606 54.44 20.3416 54.1043C20.7099 53.7645 20.9859 53.323 21.1697 52.7799C21.3277 52.3126 21.3909 51.8554 21.3592 51.4083C21.3317 50.9486 21.2071 50.5264 20.9854 50.1417L22.7791 49.2706C23.1474 49.8878 23.3573 50.557 23.4089 51.2783C23.4605 51.9995 23.3667 52.7138 23.1274 53.4211Z" fill="#FF575A"/>
<path d="M35.467 33.954L26.558 23.6784L28.2202 22.2372L37.1293 32.5128L35.467 33.954ZM28.7506 29.7184L27.4405 28.2073L32.5783 23.7528L33.8885 25.2639L28.7506 29.7184Z" fill="#FF575A"/>
<path d="M48.9982 25.4606C48.1141 25.8348 47.2328 25.9762 46.3544 25.8848C45.483 25.7758 44.6904 25.4598 43.9767 24.9366C43.2752 24.4083 42.74 23.7082 42.3709 22.8364C42.0019 21.9646 41.8745 21.0992 41.9886 20.2401C42.0975 19.3687 42.41 18.5849 42.9261 17.8886C43.4545 17.1871 44.1423 16.6571 44.9895 16.2985C45.8121 15.9502 46.6171 15.8339 47.4045 15.9495C48.2041 16.0598 48.9223 16.3712 49.559 16.8835C50.208 17.3906 50.7119 18.0678 51.0705 18.915C51.1329 19.0623 51.1856 19.221 51.2286 19.391C51.2787 19.5436 51.3243 19.7197 51.3654 19.9195L44.1088 22.9912L43.4071 21.3336L49.6139 18.7063L49.1394 19.689C48.8862 19.1591 48.5895 18.749 48.2494 18.4586C47.9093 18.1682 47.5258 17.9975 47.0988 17.9466C46.6841 17.8905 46.2312 17.9664 45.7401 18.1743C45.2244 18.3926 44.823 18.6928 44.5359 19.0749C44.2488 19.4571 44.0867 19.8949 44.0495 20.3885C44.0071 20.8697 44.1028 21.3866 44.3367 21.9392C44.5706 22.4917 44.8864 22.9299 45.2841 23.2538C45.6818 23.5778 46.1327 23.7706 46.6366 23.8324C47.1354 23.8819 47.6487 23.7949 48.1767 23.5714C48.631 23.3791 49.0147 23.1225 49.3278 22.8018C49.6531 22.4759 49.8859 22.1022 50.0261 21.6809L51.8689 22.4428C51.6522 23.1282 51.2915 23.7297 50.7867 24.2474C50.282 24.7652 49.6858 25.1696 48.9982 25.4606Z" fill="#FF575A"/>
<path d="M66.2083 21.5372L63.2328 17.6324L62.8139 17.2946L58.8192 12.3234L61.4753 12.1795L64.1242 15.6012L64.522 15.9202L68.8445 21.3944L66.2083 21.5372ZM59.1587 21.919L62.742 16.3371L64.1056 17.8455L61.7149 21.7806L59.1587 21.919ZM64.7888 17.1476L63.4063 15.6601L65.6092 11.9556L68.1455 11.8182L64.7888 17.1476Z" fill="#FF575A"/>
<path d="M77.7297 22.7308L81.2226 9.587L83.3488 10.152L79.8559 23.2958L77.7297 22.7308ZM77.4588 14.795L77.9724 12.8621L84.5443 14.6086L84.0307 16.5415L77.4588 14.795Z" fill="#FF575A"/>
<path d="M99.8501 35.1338C99.2468 34.5116 98.8572 33.7937 98.6812 32.98C98.5145 32.176 98.5553 31.3657 98.8037 30.5492C99.0709 29.733 99.5395 29 100.21 28.3503C100.889 27.6914 101.636 27.2456 102.451 27.0131C103.284 26.7808 104.1 26.7604 104.899 26.9519C105.716 27.1437 106.426 27.5507 107.03 28.173C107.54 28.6995 107.875 29.2751 108.035 29.8999C108.214 30.525 108.224 31.1475 108.063 31.7673C107.903 32.3872 107.574 32.9384 107.076 33.421L105.094 35.3422C104.596 35.8249 104.035 36.1368 103.411 36.278C102.796 36.4288 102.174 36.4097 101.545 36.2208C100.925 36.0227 100.361 35.6603 99.8501 35.1338ZM101.594 33.9444C102.16 34.5284 102.811 34.8072 103.547 34.7808C104.292 34.7641 104.971 34.4587 105.584 33.8647C105.995 33.4656 106.28 33.0316 106.438 32.5626C106.597 32.0935 106.618 31.6271 106.503 31.1633C106.406 30.6998 106.167 30.2718 105.787 29.8793C105.416 29.4964 104.995 29.2447 104.526 29.1243C104.075 29.0042 103.608 29.0111 103.125 29.1451C102.651 29.2886 102.209 29.5599 101.797 29.959C101.386 30.3581 101.101 30.7922 100.943 31.2612C100.794 31.7398 100.768 32.2108 100.864 32.6743C100.979 33.1382 101.223 33.5615 101.594 33.9444ZM102.04 37.1054L103.893 35.3095L105.837 33.9535L107.238 32.0657L108.933 30.423L110.464 32.0025L103.572 38.6849L102.04 37.1054Z" fill="#FF575A"/>
<path d="M112.738 57.8633L121.299 51.6947L121.775 54.0878L114.757 58.8891L114.476 57.4768L122.801 59.2467L123.258 61.5418L112.988 59.1187L112.738 57.8633Z" fill="#FF575A"/>
<path d="M113.178 75.1156C113.322 74.1664 113.662 73.3413 114.199 72.6404C114.748 71.9547 115.432 71.4445 116.251 71.1098C117.068 70.7883 117.945 70.6983 118.881 70.8398C119.817 70.9812 120.621 71.3253 121.294 71.8719C121.98 72.4205 122.484 73.0968 122.808 73.9009C123.129 74.7181 123.221 75.5815 123.084 76.4912C122.95 77.3745 122.628 78.1214 122.118 78.7321C121.606 79.3558 120.965 79.8051 120.195 80.0798C119.423 80.3678 118.583 80.443 117.673 80.3055C117.515 80.2816 117.352 80.2435 117.185 80.1913C117.028 80.1542 116.855 80.1009 116.663 80.0315L117.84 72.2399L119.62 72.5089L118.613 79.1732L118.023 78.2549C118.608 78.3162 119.112 78.2778 119.538 78.1398C119.963 78.0018 120.309 77.7642 120.576 77.4269C120.841 77.1029 121.013 76.6771 121.092 76.1498C121.176 75.5961 121.13 75.097 120.955 74.6524C120.779 74.2078 120.491 73.8406 120.09 73.5508C119.702 73.2629 119.211 73.0741 118.618 72.9845C118.024 72.8948 117.486 72.9348 117.002 73.1044C116.517 73.2739 116.117 73.5573 115.801 73.9545C115.498 74.3537 115.304 74.8368 115.218 75.4037C115.144 75.8915 115.162 76.3526 115.272 76.7872C115.38 77.235 115.576 77.6288 115.862 77.9687L114.249 79.1408C113.778 78.5977 113.454 77.9756 113.277 77.2746C113.099 76.5736 113.067 75.8539 113.178 75.1156Z" fill="#FF575A"/>
</svg>
