<svg width="89" height="18" viewBox="0 0 89 18" fill="none" xmlns="http://www.w3.org/2000/svg">
<path d="M9.68465 17.3513C8.4327 17.3513 7.27465 17.134 6.21049 16.6993C5.16199 16.2646 4.23867 15.6591 3.44056 14.8828C2.64244 14.1066 2.02429 13.2061 1.58611 12.1815C1.14792 11.1413 0.928833 10.0235 0.928833 8.82803C0.928833 7.61707 1.14792 6.49926 1.58611 5.47461C2.02429 4.44995 2.63461 3.55726 3.41708 2.79652C4.19955 2.02027 5.11504 1.42255 6.16355 1.00337C7.2277 0.56867 8.38576 0.351318 9.63771 0.351318C10.874 0.351318 12.0164 0.56867 13.0649 1.00337C14.1291 1.42255 15.0524 2.02027 15.8349 2.79652C16.633 3.55726 17.2511 4.45771 17.6893 5.49789C18.1275 6.52255 18.3466 7.64036 18.3466 8.85132C18.3466 10.0468 18.1275 11.1646 17.6893 12.2047C17.2511 13.2294 16.6408 14.1299 15.8583 14.9061C15.0759 15.6668 14.1525 16.2646 13.0884 16.6993C12.0399 17.134 10.9053 17.3513 9.68465 17.3513ZM9.63771 14.0212C10.6236 14.0212 11.4843 13.8038 12.2199 13.3691C12.971 12.9344 13.55 12.3289 13.9569 11.5527C14.3638 10.7609 14.5673 9.85269 14.5673 8.82803C14.5673 8.05178 14.4499 7.35314 14.2151 6.73214C13.9804 6.09561 13.6439 5.55223 13.2058 5.102C12.7676 4.63625 12.2433 4.28694 11.633 4.05406C11.0383 3.80566 10.3732 3.68146 9.63771 3.68146C8.6518 3.68146 7.78326 3.89881 7.03209 4.33351C6.29657 4.75269 5.72536 5.35041 5.31848 6.12666C4.9116 6.88739 4.70816 7.78785 4.70816 8.82803C4.70816 9.60429 4.82552 10.3107 5.06027 10.9472C5.29501 11.5837 5.62364 12.1349 6.04618 12.6006C6.48436 13.0509 7.00861 13.4002 7.61894 13.6486C8.22926 13.897 8.90219 14.0212 9.63771 14.0212Z" fill="white"/>
<path d="M20.6861 17.0719V0.630771H24.3715V17.0719H20.6861ZM23.503 10.6212V7.47735H31.7893V10.6212H23.503ZM23.503 3.77461V0.630771H32.1649V3.77461H23.503Z" fill="white"/>
<path d="M39.4705 17.328C38.2342 17.328 37.1309 17.0796 36.1606 16.5828C35.206 16.0705 34.4548 15.3641 33.9071 14.4636C33.3594 13.5632 33.0855 12.5463 33.0855 11.413C33.0855 10.2796 33.3516 9.2705 33.8836 8.38556C34.4314 7.48511 35.1669 6.77872 36.0902 6.26639C37.0135 5.75406 38.0542 5.49789 39.2123 5.49789C40.339 5.49789 41.3327 5.73853 42.1935 6.21981C43.0542 6.70109 43.7271 7.36867 44.2122 8.22255C44.713 9.07643 44.9634 10.0545 44.9634 11.1568C44.9634 11.3586 44.9478 11.576 44.9165 11.8089C44.9008 12.0262 44.8617 12.2824 44.7991 12.5773L34.9635 12.6006V10.1554L43.2733 10.1321L41.724 11.1568C41.7083 10.5047 41.6066 9.96913 41.4188 9.54995C41.231 9.11525 40.9493 8.78922 40.5738 8.57187C40.2138 8.33899 39.7678 8.22255 39.2357 8.22255C38.6724 8.22255 38.1794 8.35452 37.7569 8.61844C37.35 8.86684 37.0292 9.22392 36.7944 9.68967C36.5753 10.1554 36.4658 10.7221 36.4658 11.3897C36.4658 12.0573 36.5832 12.6317 36.8179 13.113C37.0683 13.5787 37.4126 13.9436 37.8508 14.2075C38.3046 14.4559 38.8367 14.5801 39.447 14.5801C40.0104 14.5801 40.519 14.4869 40.9728 14.3006C41.4266 14.0988 41.8257 13.8038 42.17 13.4157L44.1418 15.3719C43.5784 16.0239 42.8977 16.513 42.0996 16.839C41.3014 17.165 40.4251 17.328 39.4705 17.328Z" fill="white"/>
<path d="M46.697 17.0719V5.75406H50.2885V17.0719H46.697ZM50.2885 10.8541L48.7862 9.68967C49.0835 8.37004 49.5843 7.34538 50.2885 6.6157C50.9927 5.88602 51.9708 5.52118 53.2228 5.52118C53.7705 5.52118 54.2478 5.60657 54.6547 5.77735C55.0772 5.9326 55.445 6.181 55.758 6.52255L53.6218 9.20063C53.4653 9.02986 53.2697 8.89789 53.035 8.80474C52.8002 8.71159 52.5342 8.66502 52.2369 8.66502C51.6422 8.66502 51.1649 8.85132 50.805 9.22392C50.4607 9.581 50.2885 10.1244 50.2885 10.8541Z" fill="white"/>
<path d="M56.646 17.0719V5.75406H60.2375V17.0719H56.646ZM60.2375 10.8541L58.7351 9.68967C59.0325 8.37004 59.5333 7.34538 60.2375 6.6157C60.9417 5.88602 61.9198 5.52118 63.1717 5.52118C63.7195 5.52118 64.1968 5.60657 64.6037 5.77735C65.0262 5.9326 65.394 6.181 65.7069 6.52255L63.5708 9.20063C63.4143 9.02986 63.2187 8.89789 62.984 8.80474C62.7492 8.71159 62.4832 8.66502 62.1858 8.66502C61.5912 8.66502 61.1139 8.85132 60.7539 9.22392C60.4096 9.581 60.2375 10.1244 60.2375 10.8541Z" fill="white"/>
<path d="M71.8357 17.328C70.662 17.328 69.5978 17.0719 68.6432 16.5595C67.7043 16.0317 66.9609 15.3175 66.4132 14.4171C65.8655 13.5166 65.5916 12.5075 65.5916 11.3897C65.5916 10.2719 65.8655 9.2705 66.4132 8.38556C66.9609 7.50063 67.7043 6.802 68.6432 6.28968C69.5822 5.76182 70.6463 5.49789 71.8357 5.49789C73.025 5.49789 74.0892 5.75406 75.0282 6.26639C75.9671 6.77872 76.7105 7.48511 77.2582 8.38556C77.8059 9.2705 78.0798 10.2719 78.0798 11.3897C78.0798 12.5075 77.8059 13.5166 77.2582 14.4171C76.7105 15.3175 75.9671 16.0317 75.0282 16.5595C74.0892 17.0719 73.025 17.328 71.8357 17.328ZM71.8357 14.091C72.3521 14.091 72.8059 13.9824 73.1972 13.765C73.5884 13.5321 73.8858 13.2139 74.0892 12.8102C74.3083 12.391 74.4178 11.9175 74.4178 11.3897C74.4178 10.8618 74.3083 10.4038 74.0892 10.0157C73.8701 9.61205 73.5649 9.30155 73.1737 9.0842C72.7981 8.85132 72.3521 8.73488 71.8357 8.73488C71.3349 8.73488 70.8889 8.85132 70.4977 9.0842C70.1064 9.30155 69.8013 9.61205 69.5822 10.0157C69.3631 10.4194 69.2535 10.8851 69.2535 11.413C69.2535 11.9253 69.3631 12.391 69.5822 12.8102C69.8013 13.2139 70.1064 13.5321 70.4977 13.765C70.8889 13.9824 71.3349 14.091 71.8357 14.091Z" fill="white"/>
<path d="M79.8678 17.0719V5.75406H83.4594V17.0719H79.8678ZM83.4594 10.8541L81.957 9.68967C82.2544 8.37004 82.7552 7.34538 83.4594 6.6157C84.1636 5.88602 85.1417 5.52118 86.3936 5.52118C86.9414 5.52118 87.4187 5.60657 87.8255 5.77735C88.2481 5.9326 88.6158 6.181 88.9288 6.52255L86.7927 9.20063C86.6362 9.02986 86.4406 8.89789 86.2058 8.80474C85.9711 8.71159 85.7051 8.66502 85.4077 8.66502C84.813 8.66502 84.3357 8.85132 83.9758 9.22392C83.6315 9.581 83.4594 10.1244 83.4594 10.8541Z" fill="white"/>
</svg>
