<svg width="133" height="26" viewBox="0 0 133 26" fill="none" xmlns="http://www.w3.org/2000/svg">
<path d="M0 0.48268C0 0.216103 0.216103 0 0.48268 0H24.5208L21.5 7.5L4.20935 5.26982C1.80222 4.95935 0 2.90974 0 0.48268Z" fill="#F54E51"/>
<path d="M2.65887 10.6295C2.65887 10.3065 2.92069 10.0447 3.24365 10.0447H16.5441V18.6122L7.11918 16.3102C4.50095 15.6708 2.65887 13.3247 2.65887 10.6295Z" fill="#F54E51"/>
<path d="M21.5665 7.68115L19.5001 8.5L15.9263 17.5197C14.6052 20.8539 11.3823 23.0436 7.79583 23.0436C7.17589 23.0436 6.75277 22.4164 6.98492 21.8415L12.4509 8.30669C12.6036 7.92865 12.9705 7.68115 13.3782 7.68115L21.5665 7.68115Z" fill="#F54E51"/>
<path fill-rule="evenodd" clip-rule="evenodd" d="M24.0776 25.7025C31.1751 25.7025 36.9288 19.9488 36.9288 12.8512C36.9288 5.7537 31.1751 0 24.0776 0C16.98 0 11.2263 5.7537 11.2263 12.8512C11.2263 19.9488 16.98 25.7025 24.0776 25.7025ZM24.0777 18.6121C27.2593 18.6121 29.8386 16.0329 29.8386 12.8512C29.8386 9.66958 27.2593 7.09033 24.0777 7.09033C20.896 7.09033 18.3168 9.66958 18.3168 12.8512C18.3168 16.0329 20.896 18.6121 24.0777 18.6121Z" fill="#F54E51"/>
<path d="M53.6847 21.3512C52.4327 21.3512 51.2747 21.1338 50.2105 20.6991C49.162 20.2644 48.2387 19.659 47.4406 18.8827C46.6425 18.1064 46.0243 17.206 45.5861 16.1813C45.148 15.1412 44.9289 14.0233 44.9289 12.8279C44.9289 11.617 45.148 10.4991 45.5861 9.47448C46.0243 8.44983 46.6346 7.55713 47.4171 6.7964C48.1996 6.02015 49.1151 5.42243 50.1636 5.00325C51.2277 4.56855 52.3858 4.3512 53.6377 4.3512C54.874 4.3512 56.0164 4.56855 57.0649 5.00325C58.1291 5.42243 59.0524 6.02015 59.8349 6.7964C60.633 7.55713 61.2512 8.45759 61.6893 9.49777C62.1275 10.5224 62.3466 11.6402 62.3466 12.8512C62.3466 14.0466 62.1275 15.1644 61.6893 16.2046C61.2512 17.2293 60.6408 18.1297 59.8584 18.906C59.0759 19.6667 58.1526 20.2644 57.0884 20.6991C56.0399 21.1338 54.9053 21.3512 53.6847 21.3512ZM53.6377 18.0211C54.6236 18.0211 55.4844 17.8037 56.2199 17.369C56.9711 16.9343 57.5501 16.3288 57.957 15.5526C58.3638 14.7608 58.5673 13.8526 58.5673 12.8279C58.5673 12.0517 58.4499 11.353 58.2152 10.732C57.9804 10.0955 57.644 9.55211 57.2058 9.10188C56.7676 8.63613 56.2434 8.28681 55.633 8.05394C55.0384 7.80553 54.3733 7.68133 53.6377 7.68133C52.6518 7.68133 51.7833 7.89869 51.0321 8.33339C50.2966 8.75257 49.7254 9.35028 49.3185 10.1265C48.9116 10.8873 48.7082 11.7877 48.7082 12.8279C48.7082 13.6042 48.8256 14.3106 49.0603 14.9471C49.295 15.5836 49.6237 16.1348 50.0462 16.6005C50.4844 17.0507 51.0086 17.4001 51.619 17.6485C52.2293 17.8969 52.9022 18.0211 53.6377 18.0211Z" fill="white"/>
<path d="M64.6861 21.0717V4.63065H68.3716V21.0717H64.6861ZM67.503 14.6211V11.4772H75.7894V14.6211H67.503ZM67.503 7.77448V4.63065H76.1649V7.77448H67.503Z" fill="white"/>
<path d="M83.4705 21.3279C82.2342 21.3279 81.1309 21.0795 80.1607 20.5827C79.2061 20.0704 78.4549 19.364 77.9072 18.4635C77.3594 17.5631 77.0856 16.5462 77.0856 15.4128C77.0856 14.2795 77.3516 13.2704 77.8837 12.3854C78.4314 11.485 79.1669 10.7786 80.0902 10.2663C81.0136 9.75394 82.0542 9.49777 83.2123 9.49777C84.339 9.49777 85.3328 9.73841 86.1935 10.2197C87.0542 10.701 87.7271 11.3685 88.2123 12.2224C88.713 13.0763 88.9634 14.0544 88.9634 15.1567C88.9634 15.3585 88.9478 15.5759 88.9165 15.8087C88.9008 16.0261 88.8617 16.2822 88.7991 16.5772L78.9635 16.6005V14.1553L87.2733 14.132L85.724 15.1567C85.7084 14.5046 85.6066 13.969 85.4188 13.5498C85.2311 13.1151 84.9494 12.7891 84.5738 12.5717C84.2138 12.3389 83.7678 12.2224 83.2358 12.2224C82.6724 12.2224 82.1794 12.3544 81.7569 12.6183C81.35 12.8667 81.0292 13.2238 80.7945 13.6896C80.5754 14.1553 80.4658 14.722 80.4658 15.3896C80.4658 16.0571 80.5832 16.6316 80.8179 17.1128C81.0683 17.5786 81.4126 17.9434 81.8508 18.2074C82.3046 18.4558 82.8367 18.58 83.447 18.58C84.0104 18.58 84.519 18.4868 84.9728 18.3005C85.4267 18.0987 85.8257 17.8037 86.17 17.4156L88.1418 19.3717C87.5785 20.0238 86.8977 20.5128 86.0996 20.8389C85.3015 21.1649 84.4251 21.3279 83.4705 21.3279Z" fill="white"/>
<path d="M90.697 21.0717V9.75394H94.2886V21.0717H90.697ZM94.2886 14.8539L92.7862 13.6896C93.0836 12.3699 93.5843 11.3453 94.2886 10.6156C94.9928 9.8859 95.9709 9.52106 97.2228 9.52106C97.7705 9.52106 98.2478 9.60645 98.6547 9.77722C99.0773 9.93248 99.445 10.1809 99.758 10.5224L97.6219 13.2005C97.4654 13.0297 97.2698 12.8978 97.035 12.8046C96.8003 12.7115 96.5342 12.6649 96.2369 12.6649C95.6422 12.6649 95.1649 12.8512 94.805 13.2238C94.4607 13.5809 94.2886 14.1243 94.2886 14.8539Z" fill="white"/>
<path d="M100.646 21.0717V9.75394H104.238V21.0717H100.646ZM104.238 14.8539L102.735 13.6896C103.033 12.3699 103.533 11.3453 104.238 10.6156C104.942 9.8859 105.92 9.52106 107.172 9.52106C107.72 9.52106 108.197 9.60645 108.604 9.77722C109.026 9.93248 109.394 10.1809 109.707 10.5224L107.571 13.2005C107.414 13.0297 107.219 12.8978 106.984 12.8046C106.749 12.7115 106.483 12.6649 106.186 12.6649C105.591 12.6649 105.114 12.8512 104.754 13.2238C104.41 13.5809 104.238 14.1243 104.238 14.8539Z" fill="white"/>
<path d="M115.836 21.3279C114.662 21.3279 113.598 21.0717 112.643 20.5594C111.704 20.0316 110.961 19.3174 110.413 18.4169C109.865 17.5165 109.592 16.5074 109.592 15.3896C109.592 14.2717 109.865 13.2704 110.413 12.3854C110.961 11.5005 111.704 10.8019 112.643 10.2896C113.582 9.7617 114.646 9.49777 115.836 9.49777C117.025 9.49777 118.089 9.75394 119.028 10.2663C119.967 10.7786 120.71 11.485 121.258 12.3854C121.806 13.2704 122.08 14.2717 122.08 15.3896C122.08 16.5074 121.806 17.5165 121.258 18.4169C120.71 19.3174 119.967 20.0316 119.028 20.5594C118.089 21.0717 117.025 21.3279 115.836 21.3279ZM115.836 18.0909C116.352 18.0909 116.806 17.9822 117.197 17.7649C117.588 17.532 117.886 17.2138 118.089 16.8101C118.308 16.3909 118.418 15.9174 118.418 15.3896C118.418 14.8617 118.308 14.4037 118.089 14.0156C117.87 13.6119 117.565 13.3014 117.174 13.0841C116.798 12.8512 116.352 12.7348 115.836 12.7348C115.335 12.7348 114.889 12.8512 114.498 13.0841C114.106 13.3014 113.801 13.6119 113.582 14.0156C113.363 14.4192 113.254 14.885 113.254 15.4128C113.254 15.9252 113.363 16.3909 113.582 16.8101C113.801 17.2138 114.106 17.532 114.498 17.7649C114.889 17.9822 115.335 18.0909 115.836 18.0909Z" fill="white"/>
<path d="M123.868 21.0717V9.75394H127.459V21.0717H123.868ZM127.459 14.8539L125.957 13.6896C126.254 12.3699 126.755 11.3453 127.459 10.6156C128.164 9.8859 129.142 9.52106 130.394 9.52106C130.941 9.52106 131.419 9.60645 131.826 9.77722C132.248 9.93248 132.616 10.1809 132.929 10.5224L130.793 13.2005C130.636 13.0297 130.441 12.8978 130.206 12.8046C129.971 12.7115 129.705 12.6649 129.408 12.6649C128.813 12.6649 128.336 12.8512 127.976 13.2238C127.632 13.5809 127.459 14.1243 127.459 14.8539Z" fill="white"/>
</svg>
