<svg width="1000" height="71" viewBox="0 0 1000 71" fill="none" xmlns="http://www.w3.org/2000/svg">
<path d="M38.7128 70.368C33.197 70.368 28.0897 69.504 23.3911 67.776C18.6924 65.984 14.5726 63.52 11.0316 60.384C7.55869 57.184 4.83484 53.44 2.86005 49.152C0.953349 44.864 0 40.224 0 35.232C0 30.176 0.953349 25.536 2.86005 21.312C4.83484 17.024 7.55869 13.312 11.0316 10.176C14.5726 7.04 18.6584 4.576 23.2889 2.784C27.9876 0.992004 33.0608 0.0960045 38.5085 0.0960045C44.2286 0.0960045 49.3698 0.960005 53.9323 2.68801C58.4947 4.352 62.5124 6.688 65.9853 9.696L53.728 21.216C52.0256 19.424 49.9146 18.016 47.395 16.992C44.8755 15.968 41.9133 15.456 38.5085 15.456C35.5803 15.456 32.8905 15.904 30.4391 16.8C28.0557 17.696 25.9787 19.04 24.2082 20.832C22.4377 22.56 21.0418 24.64 20.0203 27.072C19.067 29.504 18.5903 32.224 18.5903 35.232C18.5903 38.24 19.067 40.96 20.0203 43.392C21.0418 45.824 22.4377 47.936 24.2082 49.728C25.9787 51.456 28.0557 52.8 30.4391 53.76C32.8905 54.656 35.5803 55.104 38.5085 55.104C41.9133 55.104 44.9095 54.624 47.4972 53.664C50.0848 52.64 52.298 51.2 54.1366 49.344L66.3939 60.864C62.8529 63.872 58.8352 66.208 54.3409 67.872C49.9146 69.536 44.7052 70.368 38.7128 70.368Z" fill="white"/>
<path d="M111.242 70.56C105.658 70.56 100.517 69.664 95.8179 67.872C91.1193 66.08 86.9994 63.584 83.4584 60.384C79.9855 57.184 77.2617 53.44 75.2869 49.152C73.3121 44.8 72.3247 40.128 72.3247 35.136C72.3247 30.144 73.278 25.536 75.1847 21.312C77.1595 17.024 79.8834 13.28 83.3563 10.08C86.8292 6.88 90.915 4.416 95.6136 2.68801C100.312 0.896002 105.454 0 111.037 0C116.621 0 121.763 0.896002 126.461 2.68801C131.16 4.416 135.246 6.88 138.719 10.08C142.192 13.28 144.881 17.024 146.788 21.312C148.763 25.6 149.75 30.24 149.75 35.232C149.75 40.224 148.763 44.864 146.788 49.152C144.881 53.44 142.192 57.216 138.719 60.48C135.246 63.68 131.16 66.176 126.461 67.968C121.831 69.696 116.758 70.56 111.242 70.56ZM111.037 55.2C115.123 55.2 118.664 54.368 121.66 52.704C124.657 51.04 126.972 48.704 128.606 45.696C130.241 42.688 131.058 39.168 131.058 35.136C131.058 32.192 130.581 29.504 129.628 27.072C128.742 24.64 127.415 22.56 125.644 20.832C123.874 19.04 121.763 17.664 119.311 16.704C116.86 15.744 114.102 15.264 111.037 15.264C106.952 15.264 103.411 16.096 100.414 17.76C97.4182 19.36 95.1029 21.664 93.4686 24.672C91.8343 27.68 91.0171 31.168 91.0171 35.136C91.0171 38.208 91.4597 40.992 92.345 43.488C93.2983 45.92 94.6603 48.032 96.4308 49.824C98.2013 51.552 100.312 52.896 102.764 53.856C105.215 54.752 107.973 55.2 111.037 55.2Z" fill="white"/>
<path d="M163.491 69.312V1.248H181.775V69.312H163.491ZM177.996 43.872V29.376H213.848V43.872H177.996ZM177.996 15.744V1.248H215.483V15.744H177.996Z" fill="white"/>
<path d="M229.534 69.312V1.248H247.818V69.312H229.534ZM244.038 43.872V29.376H279.891V43.872H244.038ZM244.038 15.744V1.248H281.525V15.744H244.038Z" fill="white"/>
<path d="M295.577 69.312V1.248H313.86V69.312H295.577ZM310.081 69.312V54.816H349.305V69.312H310.081ZM310.081 41.664V27.552H345.627V41.664H310.081ZM310.081 15.744V1.248H348.692V15.744H310.081Z" fill="white"/>
<path d="M364.213 69.312V1.248H382.497V69.312H364.213ZM378.717 69.312V54.816H417.941V69.312H378.717ZM378.717 41.664V27.552H414.264V41.664H378.717ZM378.717 15.744V1.248H417.328V15.744H378.717Z" fill="white"/>
<path d="M478.216 69.312L455.233 1.248H473.313L489.86 53.664H481.995L498.338 1.248H512.945L529.288 53.664H521.525L538.072 1.248H556.05L532.965 69.312H518.256L501.913 16.992H509.268L493.027 69.312H478.216Z" fill="white"/>
<path d="M568.278 69.312V1.248H586.562V69.312H568.278Z" fill="white"/>
<path d="M621.566 69.312V1.728H639.85V69.312H621.566ZM599.401 16.032V1.248H662.015V16.032H599.401Z" fill="white"/>
<path d="M674.928 69.312V1.248H693.212V69.312H674.928ZM719.258 69.312V1.248H737.542V69.312H719.258ZM685.346 41.664V27.264H725.898V41.664H685.346Z" fill="white"/>
<path d="M803.67 44.928L775.989 1.248H796.929L818.073 36.672H803.364L824.508 1.248H845.039L817.153 44.928H803.67ZM801.525 69.312V37.92H819.809V69.312H801.525Z" fill="white"/>
<path d="M887.077 70.56C881.493 70.56 876.352 69.664 871.653 67.872C866.954 66.08 862.835 63.584 859.294 60.384C855.821 57.184 853.097 53.44 851.122 49.152C849.147 44.8 848.16 40.128 848.16 35.136C848.16 30.144 849.113 25.536 851.02 21.312C852.995 17.024 855.719 13.28 859.191 10.08C862.664 6.88 866.75 4.416 871.449 2.68801C876.147 0.896002 881.289 0 886.873 0C892.457 0 897.598 0.896002 902.296 2.68801C906.995 4.416 911.081 6.88 914.554 10.08C918.027 13.28 920.717 17.024 922.623 21.312C924.598 25.6 925.585 30.24 925.585 35.232C925.585 40.224 924.598 44.864 922.623 49.152C920.717 53.44 918.027 57.216 914.554 60.48C911.081 63.68 906.995 66.176 902.296 67.968C897.666 69.696 892.593 70.56 887.077 70.56ZM886.873 55.2C890.958 55.2 894.499 54.368 897.496 52.704C900.492 51.04 902.807 48.704 904.441 45.696C906.076 42.688 906.893 39.168 906.893 35.136C906.893 32.192 906.416 29.504 905.463 27.072C904.578 24.64 903.25 22.56 901.479 20.832C899.709 19.04 897.598 17.664 895.146 16.704C892.695 15.744 889.937 15.264 886.873 15.264C882.787 15.264 879.246 16.096 876.25 17.76C873.253 19.36 870.938 21.664 869.304 24.672C867.669 27.68 866.852 31.168 866.852 35.136C866.852 38.208 867.295 40.992 868.18 43.488C869.134 45.92 870.495 48.032 872.266 49.824C874.036 51.552 876.147 52.896 878.599 53.856C881.05 54.752 883.808 55.2 886.873 55.2Z" fill="white"/>
<path d="M969.152 70.368C963.024 70.368 957.61 69.184 952.911 66.816C948.281 64.384 944.672 61.024 942.084 56.736C939.497 52.448 938.203 47.584 938.203 42.144V1.248H956.384V43.392C956.384 45.824 956.929 47.936 958.019 49.728C959.176 51.456 960.708 52.8 962.615 53.76C964.59 54.656 966.769 55.104 969.152 55.104C971.604 55.104 973.749 54.656 975.588 53.76C977.426 52.8 978.89 51.456 979.98 49.728C981.069 48 981.614 45.92 981.614 43.488V1.248H1000V42.24C1000 47.68 998.706 52.544 996.119 56.832C993.531 61.056 989.922 64.384 985.291 66.816C980.729 69.184 975.349 70.368 969.152 70.368Z" fill="white"/>
</svg>
