<svg width="991" height="75" viewBox="0 0 991 75" fill="none" xmlns="http://www.w3.org/2000/svg">
<path d="M39.1 74.2C33.6333 74.2 28.5333 73.3 23.8 71.5C19.1333 69.6334 15.0333 67.0334 11.5 63.7C7.96666 60.3667 5.19999 56.4667 3.19999 52C1.26665 47.4667 0.299988 42.5667 0.299988 37.3C0.299988 31.9667 1.26665 27.0667 3.19999 22.6C5.19999 18.1334 7.93332 14.2667 11.4 11C14.9333 7.73336 19.0333 5.20002 23.7 3.40002C28.3667 1.53336 33.4333 0.600022 38.9 0.600022C44.4333 0.600022 49.5 1.46669 54.1 3.20002C58.7 4.93335 62.7 7.33335 66.1 10.4L52.8 23.8C51.2 22.0667 49.2333 20.7 46.9 19.7C44.6333 18.7 41.9667 18.2 38.9 18.2C36.2333 18.2 33.7667 18.6334 31.5 19.5C29.3 20.3667 27.4 21.6334 25.8 23.3C24.2 24.9667 22.9333 27 22 29.4C21.1333 31.7334 20.7 34.3667 20.7 37.3C20.7 40.3 21.1333 43 22 45.4C22.9333 47.7334 24.2 49.7334 25.8 51.4C27.4 53.0667 29.3 54.3667 31.5 55.3C33.7667 56.1667 36.2333 56.6 38.9 56.6C41.9 56.6 44.5667 56.1334 46.9 55.2C49.3 54.2667 51.3667 52.9 53.1 51.1L66.5 64.5C62.9667 67.5667 59 69.9667 54.6 71.7C50.2 73.3667 45.0333 74.2 39.1 74.2Z" fill="white"/>
<path d="M110.299 74.4C104.699 74.4 99.5325 73.4667 94.7992 71.6C90.1325 69.7334 86.0325 67.1334 82.4992 63.8C79.0325 60.4667 76.3325 56.5334 74.3992 52C72.4659 47.4667 71.4992 42.5667 71.4992 37.3C71.4992 31.9667 72.4325 27.0667 74.2992 22.6C76.2325 18.1334 78.9325 14.2334 82.3992 10.9C85.8659 7.56669 89.9325 5.00002 94.5992 3.20002C99.3325 1.33336 104.499 0.400024 110.099 0.400024C115.699 0.400024 120.833 1.33336 125.499 3.20002C130.233 5.00002 134.333 7.56669 137.799 10.9C141.266 14.2334 143.933 18.1667 145.799 22.7C147.733 27.1667 148.699 32.0667 148.699 37.4C148.699 42.6667 147.733 47.5667 145.799 52.1C143.933 56.5667 141.266 60.5 137.799 63.9C134.333 67.2334 130.266 69.8334 125.599 71.7C120.933 73.5 115.833 74.4 110.299 74.4ZM110.099 56.8C113.833 56.8 117.066 56 119.799 54.4C122.533 52.8 124.633 50.5334 126.099 47.6C127.566 44.6667 128.299 41.2334 128.299 37.3C128.299 34.3667 127.866 31.7334 126.999 29.4C126.199 27 124.999 24.9667 123.399 23.3C121.799 21.5667 119.866 20.2667 117.599 19.4C115.399 18.4667 112.899 18 110.099 18C106.366 18 103.133 18.8 100.399 20.4C97.6659 21.9334 95.5659 24.1667 94.0992 27.1C92.6325 29.9667 91.8992 33.3667 91.8992 37.3C91.8992 40.3 92.2992 43 93.0992 45.4C93.9659 47.8 95.1992 49.8667 96.7992 51.6C98.3992 53.2667 100.299 54.5667 102.499 55.5C104.766 56.3667 107.299 56.8 110.099 56.8Z" fill="white"/>
<path d="M161.435 73V1.80002H181.435V73H161.435ZM177.635 47.7V31.1H212.635V47.7H177.635ZM177.635 18.4V1.80002H214.135V18.4H177.635Z" fill="white"/>
<path d="M227.361 73V1.80002H247.361V73H227.361ZM243.561 47.7V31.1H278.561V47.7H243.561ZM243.561 18.4V1.80002H280.061V18.4H243.561Z" fill="white"/>
<path d="M293.287 73V1.80002H313.287V73H293.287ZM309.487 73V56.4H347.687V73H309.487ZM309.487 44.8V28.6H343.987V44.8H309.487ZM309.487 18.4V1.80002H347.087V18.4H309.487Z" fill="white"/>
<path d="M361.654 73V1.80002H381.654V73H361.654ZM377.854 73V56.4H416.054V73H377.854ZM377.854 44.8V28.6H412.354V44.8H377.854ZM377.854 18.4V1.80002H415.454V18.4H377.854Z" fill="white"/>
<path d="M473.259 73L450.859 1.80002H470.759L486.559 56.6H477.359L492.959 1.80002H509.459L525.059 56.6H515.959L531.759 1.80002H551.459L529.059 73H512.459L496.859 18.3H505.459L489.859 73H473.259Z" fill="white"/>
<path d="M562.705 73V1.80002H582.705V73H562.705Z" fill="white"/>
<path d="M616.041 73V1.80002H636.041V73H616.041ZM594.741 18.8V1.80002H657.441V18.8H594.741Z" fill="white"/>
<path d="M669.459 73V1.80002H689.459V73H669.459ZM712.459 73V1.80002H732.459V73H712.459ZM680.359 45V28.4H720.259V45H680.359Z" fill="white"/>
<path d="M795.301 48.5L768.201 1.80002H791.201L811.701 39.9H794.501L815.001 1.80002H837.501L810.201 48.5H795.301ZM793.001 73V41.2H813.001V73H793.001Z" fill="white"/>
<path d="M878.733 74.4C873.133 74.4 867.966 73.4667 863.233 71.6C858.566 69.7334 854.466 67.1334 850.933 63.8C847.466 60.4667 844.766 56.5334 842.833 52C840.899 47.4667 839.933 42.5667 839.933 37.3C839.933 31.9667 840.866 27.0667 842.733 22.6C844.666 18.1334 847.366 14.2334 850.833 10.9C854.299 7.56669 858.366 5.00002 863.033 3.20002C867.766 1.33336 872.933 0.400024 878.533 0.400024C884.133 0.400024 889.266 1.33336 893.933 3.20002C898.666 5.00002 902.766 7.56669 906.233 10.9C909.699 14.2334 912.366 18.1667 914.233 22.7C916.166 27.1667 917.133 32.0667 917.133 37.4C917.133 42.6667 916.166 47.5667 914.233 52.1C912.366 56.5667 909.699 60.5 906.233 63.9C902.766 67.2334 898.699 69.8334 894.033 71.7C889.366 73.5 884.266 74.4 878.733 74.4ZM878.533 56.8C882.266 56.8 885.499 56 888.233 54.4C890.966 52.8 893.066 50.5334 894.533 47.6C895.999 44.6667 896.733 41.2334 896.733 37.3C896.733 34.3667 896.299 31.7334 895.433 29.4C894.633 27 893.433 24.9667 891.833 23.3C890.233 21.5667 888.299 20.2667 886.033 19.4C883.833 18.4667 881.333 18 878.533 18C874.799 18 871.566 18.8 868.833 20.4C866.099 21.9334 863.999 24.1667 862.533 27.1C861.066 29.9667 860.333 33.3667 860.333 37.3C860.333 40.3 860.733 43 861.533 45.4C862.399 47.8 863.633 49.8667 865.233 51.6C866.833 53.2667 868.733 54.5667 870.933 55.5C873.199 56.3667 875.733 56.8 878.533 56.8Z" fill="white"/>
<path d="M959.769 74.2C953.502 74.2 948.035 72.9334 943.369 70.4C938.702 67.8 935.069 64.2334 932.469 59.7C929.869 55.1667 928.569 49.9667 928.569 44.1V1.80002H948.569V45.9C948.569 48.1667 949.069 50.1 950.069 51.7C951.069 53.3 952.402 54.5334 954.069 55.4C955.802 56.2 957.702 56.6 959.769 56.6C961.902 56.6 963.769 56.2 965.369 55.4C967.035 54.5334 968.335 53.3334 969.269 51.8C970.202 50.2 970.669 48.2667 970.669 46V1.80002H990.769V44.2C990.769 50.0667 989.469 55.2667 986.869 59.8C984.335 64.2667 980.735 67.8 976.069 70.4C971.469 72.9334 966.035 74.2 959.769 74.2Z" fill="white"/>
</svg>
